<svg width="160" height="160" viewBox="0 0 160 160" fill="none" xmlns="http://www.w3.org/2000/svg">
<path d="M80.0002 140C113.137 140 140 113.137 140 80C140 46.8629 113.137 20 80.0002 20C46.8631 20 20.0002 46.8629 20.0002 80C20.0002 113.137 46.8631 140 80.0002 140Z" fill="url(#paint0_linear_12_506)"/>
<path fill-rule="evenodd" clip-rule="evenodd" d="M20.4813 87.634C33.033 84.1776 47.2782 84.8383 63.2168 89.6159C90.9612 97.9323 111.392 73.9323 134.765 89.6159C136.146 90.542 137.456 91.5029 138.697 92.4988C132.946 119.637 108.851 140 80.0002 140C49.4493 140 24.2314 117.166 20.4813 87.634H20.4813Z" fill="url(#paint1_linear_12_506)"/>
<path fill-rule="evenodd" clip-rule="evenodd" d="M23.629 100.597C34.0584 93.7199 44.6557 92.0883 55.421 95.7025C72.1091 101.305 81.3078 88.1473 103.95 101.305C119.704 110.461 128.071 99.0158 136.502 100.237C128.198 123.417 106.036 140 80.0002 140C54.0995 140 32.0319 123.589 23.629 100.597L23.629 100.597Z" fill="url(#paint2_linear_12_506)"/>
<path fill-rule="evenodd" clip-rule="evenodd" d="M22.7061 97.869C54.7413 93.7759 52.9239 106.309 86.707 110.641C107.768 113.341 124.927 106.727 134.989 104.042C125.721 125.211 104.588 140 80.0002 140C53.0862 140 30.3111 122.279 22.7061 97.869Z" fill="url(#paint3_linear_12_506)"/>
<path fill-rule="evenodd" clip-rule="evenodd" d="M42.1618 126.567C40.9885 125.612 39.8519 124.614 38.7546 123.575C42.1991 122.086 52.9594 121 65.7002 121C81.2194 121 93.8002 122.612 93.8002 124.6C93.8002 126.588 81.2194 128.2 65.7002 128.2C55.847 128.2 47.1783 127.55 42.1618 126.567Z" fill="url(#paint4_linear_12_506)"/>
<path opacity="0.2" d="M126.8 62.9999C137.735 62.9999 146.6 54.1351 146.6 43.1999C146.6 32.2647 137.735 23.3999 126.8 23.3999C115.865 23.3999 107 32.2647 107 43.1999C107 54.1351 115.865 62.9999 126.8 62.9999Z" fill="url(#paint5_linear_12_506)"/>
<path fill-rule="evenodd" clip-rule="evenodd" d="M20.553 71.8211C24.5422 42.5532 49.6375 20 80.0002 20C91.8142 20 102.831 23.4144 112.117 29.3102C106.139 32.6159 101.88 37.2136 99.3416 43.1031C93.3714 56.9539 82.6406 64.256 62.3228 59.6533C46.0694 55.9714 30.0011 61.1485 20.553 71.8211Z" fill="url(#paint6_linear_12_506)"/>
<path fill-rule="evenodd" clip-rule="evenodd" d="M15.0362 69.184C15.7082 70.0309 16.6912 70.7112 17.9852 71.225C19.2792 71.7387 20.1773 71.7387 20.6795 71.225C20.6983 72.1382 21.2159 72.8004 22.2324 73.2114C23.7572 73.828 37.1738 78.5236 39.3155 76.5769C39.3794 77.4523 40.6315 78.1597 43.0719 78.6994C46.7325 79.5088 62.4555 82.7556 63.5962 80.7275C64.0654 81.7668 65.1081 82.3809 66.7244 82.5699C69.1487 82.8534 81.4666 84.4056 82.8844 82.2991C83.2739 82.8564 83.9119 83.1351 84.7985 83.1351C86.1283 83.1351 88.966 83.1196 89.5314 82.5699C89.9084 82.2034 86.5205 79.155 79.3677 73.4248L61.5281 65.0805L30.8888 61.2239L15.0362 69.184Z" fill="url(#paint7_linear_12_506)"/>
<path fill-rule="evenodd" clip-rule="evenodd" d="M55.2605 52.7597C55.3232 52.3224 55.7286 52.0187 56.166 52.0815C56.6033 52.1442 56.907 52.5496 56.8442 52.987L55.7921 60.3209C55.7293 60.7582 55.3239 61.0619 54.8866 60.9992C54.4492 60.9364 54.1455 60.531 54.2083 60.0937L55.2605 52.7597ZM52.2396 70.5326C52.3158 70.0973 52.7304 69.8063 53.1656 69.8825C53.6008 69.9587 53.8919 70.3732 53.8157 70.8084L44.3484 124.894C44.2722 125.329 43.8577 125.62 43.4224 125.544C42.9872 125.468 42.6962 125.053 42.7724 124.618L52.2396 70.5326Z" fill="url(#paint8_linear_12_506)"/>
<path fill-rule="evenodd" clip-rule="evenodd" d="M15.583 66.9013C14.8593 67.5843 14.4974 68.2615 14.4974 68.9329C14.4974 69.9401 14.673 69.83 17.3956 69.83C19.2107 69.83 23.7392 69.7475 30.981 69.5825C32.4183 69.5307 33.4783 68.4901 34.161 66.4608C34.4379 69.241 35.6412 70.7394 37.7709 70.956C40.9653 71.281 51.8615 71.6692 59.4811 73.7432C67.1007 75.8173 70.0439 77.8886 71.6782 73.0886C72.0011 75.1307 72.9927 76.5087 74.6528 77.2225C76.3129 77.9364 80.9104 79.7055 88.4453 82.5297C89.0568 82.8361 89.503 82.717 89.7839 82.1725C90.2052 81.3556 88.6874 78.4142 87.0521 76.244C85.4169 74.0739 79.8945 62.4074 64.1707 57.4897C62.6304 55.7394 60.69 54.8642 58.3497 54.8642C54.8391 54.8642 50.9382 52.1508 46.9111 54.3127C41.3085 54.058 36.3921 54.9282 32.1619 56.9232C27.9317 58.9182 22.4054 62.2443 15.583 66.9013Z" fill="url(#paint9_linear_12_506)"/>
<path fill-rule="evenodd" clip-rule="evenodd" d="M67.2687 122.362L62.3338 114.936C62.1851 114.712 62.2467 114.411 62.4714 114.263C62.696 114.115 62.9986 114.176 63.1472 114.4L68.0821 121.826C68.2308 122.05 68.1692 122.351 67.9446 122.499C67.72 122.647 67.4174 122.586 67.2687 122.362Z" fill="url(#paint10_linear_12_506)"/>
<path fill-rule="evenodd" clip-rule="evenodd" d="M56.7562 125.376C56.5751 125.574 56.2666 125.589 56.0673 125.408C55.8679 125.228 55.8531 124.921 56.0343 124.722L66.403 113.358C66.5841 113.159 66.8926 113.145 67.0919 113.325C67.2913 113.505 67.306 113.813 67.1249 114.011L56.7562 125.376Z" fill="url(#paint11_linear_12_506)"/>
<path fill-rule="evenodd" clip-rule="evenodd" d="M70.5291 113.926H82.4335C81.4577 116.99 79.6562 118.478 77.0291 118.389C77.0291 118.389 72.6657 118.389 63.9388 118.389L70.5291 113.926Z" fill="url(#paint12_linear_12_506)"/>
<path fill-rule="evenodd" clip-rule="evenodd" d="M54.9526 101.842H68.877C70.1114 111.505 72.8288 117.021 77.0292 118.389H63.9389C61.1382 118.051 59.0989 116.428 57.8207 113.52C56.5425 110.612 55.5865 106.719 54.9526 101.842Z" fill="url(#paint13_linear_12_506)"/>
<path fill-rule="evenodd" clip-rule="evenodd" d="M68.387 102.738C68.2399 102.514 68.3036 102.213 68.5293 102.066C68.7549 101.92 69.0571 101.983 69.2042 102.208L82.2229 122.099C82.37 122.323 82.3063 122.624 82.0806 122.771C81.855 122.917 81.5528 122.854 81.4057 122.629L68.387 102.738Z" fill="url(#paint14_linear_12_506)"/>
<path fill-rule="evenodd" clip-rule="evenodd" d="M72.0183 125.44C71.8372 125.639 71.5287 125.654 71.3294 125.473C71.13 125.293 71.1152 124.986 71.2964 124.787L81.665 113.423C81.8462 113.224 82.1546 113.21 82.354 113.39C82.5534 113.57 82.5681 113.877 82.387 114.076L72.0183 125.44Z" fill="url(#paint15_linear_12_506)"/>
<path opacity="0.2" d="M126.8 62.9999C137.735 62.9999 146.6 54.1351 146.6 43.1999C146.6 32.2647 137.735 23.3999 126.8 23.3999C115.865 23.3999 107 32.2647 107 43.1999C107 54.1351 115.865 62.9999 126.8 62.9999Z" fill="url(#paint16_linear_12_506)"/>
<path d="M126.8 57.1999C134.532 57.1999 140.8 50.9319 140.8 43.2C140.8 35.468 134.532 29.2 126.8 29.2C119.068 29.2 112.8 35.468 112.8 43.2C112.8 50.9319 119.068 57.1999 126.8 57.1999Z" fill="url(#paint17_linear_12_506)"/>
<defs>
<linearGradient id="paint0_linear_12_506" x1="74.1711" y1="33.6988" x2="38.2028" y2="80" gradientUnits="userSpaceOnUse">
<stop stop-color="#C1FFF7"/>
<stop offset="1" stop-color="#93E9DE"/>
</linearGradient>
<linearGradient id="paint1_linear_12_506" x1="94.2464" y1="106.308" x2="82.2996" y2="122.669" gradientUnits="userSpaceOnUse">
<stop stop-color="#5A93EA"/>
<stop offset="1" stop-color="#3768B4"/>
</linearGradient>
<linearGradient id="paint2_linear_12_506" x1="73.1577" y1="111.78" x2="63.752" y2="125.277" gradientUnits="userSpaceOnUse">
<stop stop-color="#5A93EA"/>
<stop offset="1" stop-color="#3768B4"/>
</linearGradient>
<linearGradient id="paint3_linear_12_506" x1="78.8476" y1="115.389" x2="77.0852" y2="121.703" gradientUnits="userSpaceOnUse">
<stop stop-color="#F9BB49"/>
<stop offset="1" stop-color="#F08523"/>
</linearGradient>
<linearGradient id="paint4_linear_12_506" x1="57.5648" y1="128.2" x2="57.5648" y2="121" gradientUnits="userSpaceOnUse">
<stop stop-color="#E87E1E" stop-opacity="0"/>
<stop offset="1" stop-color="#F07023"/>
</linearGradient>
<linearGradient id="paint5_linear_12_506" x1="126.8" y1="23.3999" x2="123.811" y2="51.3991" gradientUnits="userSpaceOnUse">
<stop stop-color="#F9BB49"/>
<stop offset="1" stop-color="#F08523"/>
</linearGradient>
<linearGradient id="paint6_linear_12_506" x1="72.4303" y1="49.2226" x2="61.0501" y2="29.9879" gradientUnits="userSpaceOnUse">
<stop stop-color="#D3FFFA"/>
<stop offset="1" stop-color="#B7FFF6"/>
</linearGradient>
<linearGradient id="paint7_linear_12_506" x1="51.4073" y1="72.9075" x2="51.7962" y2="70.709" gradientUnits="userSpaceOnUse">
<stop stop-color="#5A93EA"/>
<stop offset="1" stop-color="#3768B4"/>
</linearGradient>
<linearGradient id="paint8_linear_12_506" x1="49.7677" y1="102.44" x2="46.1765" y2="47.7892" gradientUnits="userSpaceOnUse">
<stop stop-color="#DB593D"/>
<stop offset="1" stop-color="#F88461"/>
</linearGradient>
<linearGradient id="paint9_linear_12_506" x1="54.4205" y1="65.5578" x2="53.3909" y2="71.0542" gradientUnits="userSpaceOnUse">
<stop stop-color="#77EBFF"/>
<stop offset="1" stop-color="#4D86DE"/>
</linearGradient>
<linearGradient id="paint10_linear_12_506" x1="64.9895" y1="119.938" x2="63.519" y2="113.841" gradientUnits="userSpaceOnUse">
<stop stop-color="#DB593D"/>
<stop offset="1" stop-color="#F88461"/>
</linearGradient>
<linearGradient id="paint11_linear_12_506" x1="60.8637" y1="121.654" x2="58.0012" y2="112.57" gradientUnits="userSpaceOnUse">
<stop stop-color="#DB593D"/>
<stop offset="1" stop-color="#F88461"/>
</linearGradient>
<linearGradient id="paint12_linear_12_506" x1="72.9651" y1="116.239" x2="73.0491" y2="115.854" gradientUnits="userSpaceOnUse">
<stop stop-color="#5A93EA"/>
<stop offset="1" stop-color="#3768B4"/>
</linearGradient>
<linearGradient id="paint13_linear_12_506" x1="66.6484" y1="104.765" x2="65.6956" y2="114.598" gradientUnits="userSpaceOnUse">
<stop stop-color="#77EBFF"/>
<stop offset="1" stop-color="#4D86DE"/>
</linearGradient>
<linearGradient id="paint14_linear_12_506" x1="74.8351" y1="116.287" x2="71.3528" y2="101.137" gradientUnits="userSpaceOnUse">
<stop stop-color="#DB593D"/>
<stop offset="1" stop-color="#F88461"/>
</linearGradient>
<linearGradient id="paint15_linear_12_506" x1="76.1258" y1="121.719" x2="73.2633" y2="112.635" gradientUnits="userSpaceOnUse">
<stop stop-color="#DB593D"/>
<stop offset="1" stop-color="#F88461"/>
</linearGradient>
<linearGradient id="paint16_linear_12_506" x1="126.8" y1="23.3999" x2="123.811" y2="51.3991" gradientUnits="userSpaceOnUse">
<stop stop-color="#F9BB49"/>
<stop offset="1" stop-color="#F08523"/>
</linearGradient>
<linearGradient id="paint17_linear_12_506" x1="126.8" y1="29.2" x2="124.687" y2="48.9974" gradientUnits="userSpaceOnUse">
<stop stop-color="#F9BB49"/>
<stop offset="1" stop-color="#F08523"/>
</linearGradient>
</defs>
</svg>
