<svg width="256" height="269" viewBox="0 0 256 269" fill="none" xmlns="http://www.w3.org/2000/svg">
<path d="M166.974 37.5826C184.276 41.7887 200.818 51.1236 211.175 65.6079C221.328 79.8065 220.632 98.2635 222.753 115.589C224.926 133.332 231.231 151.896 223.728 168.121C216.15 184.51 198.339 192.699 182.824 201.936C167.174 211.252 151.4 222.676 133.199 222.013C114.957 221.349 99.9204 208.938 85.0336 198.373C70.1838 187.835 53.34 177.834 46.9279 160.791C40.5634 143.875 45.8112 125.144 50.9644 107.82C55.7117 91.8614 63.4178 77.0193 75.3128 65.3688C86.9097 54.0101 101.815 47.5083 117.35 42.7991C133.596 37.8742 150.478 33.5724 166.974 37.5826Z" fill="url(#paint0_linear_12_1439)"/>
<g filter="url(#filter0_d_12_1439)">
<g clip-path="url(#clip0_12_1439)">
<rect x="52.8047" y="34.7124" width="120" height="166" rx="24" transform="rotate(-15 52.8047 34.7124)" fill="#141416"/>
<path d="M146.344 135.607C168.491 129.673 181.633 106.909 175.699 84.7616C169.765 62.6147 147.001 49.4717 124.854 55.406C102.707 61.3402 89.5638 84.1045 95.4981 106.251C101.432 128.398 124.197 141.541 146.344 135.607Z" fill="url(#paint1_linear_12_1439)"/>
<path fill-rule="evenodd" clip-rule="evenodd" d="M94.1704 92.6518C98.7588 93.6909 103.402 91.9277 108.1 87.3621C115.894 79.7876 117.574 75.7385 128.266 80.1141C138.958 84.4898 143.79 76.4144 149.611 69.4666C152.143 66.4454 156.156 63.5396 160.489 62.2782C167.685 67.6608 173.193 75.4082 175.699 84.7615C177.624 91.9452 177.542 99.1938 175.796 105.912C139.164 111.679 113.945 115.414 100.139 117.117C98.1285 113.815 96.5493 110.174 95.4981 106.251C94.2768 101.694 93.8636 97.1097 94.1704 92.6518Z" fill="url(#paint2_linear_12_1439)"/>
<path fill-rule="evenodd" clip-rule="evenodd" d="M161.184 77.4062L147.502 71.8284L143.48 68.1285L139.822 72.4883L135.943 90.9836L165.386 85.3822L161.184 77.4062Z" fill="url(#paint3_linear_12_1439)"/>
<path opacity="0.1" d="M138.71 106.851C146.794 104.685 151.591 96.3756 149.425 88.2919C147.259 80.2083 138.95 75.4111 130.866 77.5771C122.782 79.7431 117.985 88.0521 120.151 96.1357C122.317 104.219 130.626 109.017 138.71 106.851Z" fill="url(#paint4_linear_12_1439)"/>
<path d="M137.318 101.923C142.707 100.479 145.905 94.9394 144.461 89.5503C143.017 84.1613 137.478 80.9631 132.089 82.4071C126.7 83.8511 123.501 89.3904 124.945 94.7795C126.389 100.169 131.929 103.367 137.318 101.923Z" fill="url(#paint5_linear_12_1439)"/>
<path fill-rule="evenodd" clip-rule="evenodd" d="M150.856 83.5361L144.043 75.9711L143.48 68.1285L139.822 72.4883L135.943 90.9836L165.386 85.3822L150.856 83.5361Z" fill="url(#paint6_linear_12_1439)"/>
<path fill-rule="evenodd" clip-rule="evenodd" d="M104.917 109.136C101.186 102.222 99.8388 95.7931 100.876 89.8482L100.38 89.6048C98.2775 95.2887 98.3746 101.302 100.671 107.644L103.077 108.734L104.917 109.136Z" fill="url(#paint7_linear_12_1439)"/>
<path fill-rule="evenodd" clip-rule="evenodd" d="M104.917 109.136C101.186 102.222 99.8387 95.793 100.876 89.8481C99.3177 95.4265 100.051 101.722 103.077 108.734C103.077 108.734 103.69 108.868 104.917 109.136Z" fill="url(#paint8_linear_12_1439)"/>
<path fill-rule="evenodd" clip-rule="evenodd" d="M100.453 89.9654C102.155 90.6961 103.034 91.5995 103.089 92.6757C103.746 92.1088 103.983 91.4829 103.799 90.7979C103.524 89.7703 102.028 88.9008 100.536 89.6949L100.5 89.8277L100.453 89.9654Z" fill="url(#paint9_linear_12_1439)"/>
<path fill-rule="evenodd" clip-rule="evenodd" d="M100.229 89.5504C102.117 87.6565 103.868 87.49 105.482 89.0509C104.041 88.8991 102.946 89.004 102.196 89.3658C101.446 89.7275 100.803 89.8525 100.266 89.7409L100.229 89.5504Z" fill="url(#paint10_linear_12_1439)"/>
<path fill-rule="evenodd" clip-rule="evenodd" d="M100.487 90.0173C100.215 88.5644 100.362 87.4852 100.927 86.7798C101.492 86.0744 102.555 85.944 104.114 86.3885C102.41 87.0428 101.432 87.8594 101.18 88.8383C100.928 89.8171 100.697 90.2102 100.487 90.0173Z" fill="url(#paint11_linear_12_1439)"/>
<path fill-rule="evenodd" clip-rule="evenodd" d="M100.287 89.6173C98.8541 88.1146 97.6927 87.8117 96.8029 88.7086C96.8332 87.6421 97.2763 87.0056 98.1324 86.7989C98.9884 86.5923 99.8158 87.5176 100.615 89.5749L100.287 89.6173Z" fill="url(#paint12_linear_12_1439)"/>
<path fill-rule="evenodd" clip-rule="evenodd" d="M100.358 89.9138C98.6156 89.8274 97.6511 90.5361 97.4644 92.0398C96.6826 91.0812 96.7059 90.199 97.5344 89.393C98.3629 88.587 99.425 88.6849 100.721 89.6866L100.358 89.9138Z" fill="url(#paint13_linear_12_1439)"/>
<path d="M100.364 90.1914C100.585 90.132 100.717 89.9044 100.657 89.6829C100.598 89.4615 100.37 89.33 100.149 89.3894C99.9274 89.4487 99.796 89.6764 99.8553 89.8978C99.9147 90.1193 100.142 90.2507 100.364 90.1914Z" fill="url(#paint14_linear_12_1439)"/>
<path d="M100.934 90.1816C101.156 90.1223 101.287 89.8946 101.228 89.6732C101.168 89.4517 100.941 89.3203 100.719 89.3796C100.498 89.439 100.366 89.6666 100.426 89.8881C100.485 90.1095 100.713 90.241 100.934 90.1816Z" fill="url(#paint15_linear_12_1439)"/>
<path fill-rule="evenodd" clip-rule="evenodd" d="M166.278 67.5247C170.62 72.2775 173.918 78.1139 175.699 84.7615C176.477 87.6655 176.927 90.5801 177.072 93.466C173.647 94.2763 171.492 94.4881 170.605 94.1014C168.9 93.358 156.911 92.6285 134.636 91.9129C141.964 86.4364 147.187 82.649 150.306 80.5509L158.311 69.7133L162.96 70.3989L166.278 67.5247Z" fill="url(#paint16_linear_12_1439)"/>
<path fill-rule="evenodd" clip-rule="evenodd" d="M167.082 68.4311C171.028 73.0123 174.03 78.5306 175.699 84.7616C176.477 87.6656 176.927 90.5802 177.072 93.4661C173.647 94.2764 171.492 94.4882 170.605 94.1015C168.9 93.3581 156.911 92.6286 134.636 91.913L153.704 83.1591L166.163 81.3078L163.71 75.0188L167.082 68.4311Z" fill="url(#paint17_linear_12_1439)"/>
<path fill-rule="evenodd" clip-rule="evenodd" d="M94.3432 100.193C104.108 95.7062 116.515 93.079 131.564 92.3116C116.46 102.056 105.965 110.292 100.08 117.02C98.0977 113.744 96.539 110.136 95.4981 106.252C94.9572 104.233 94.5748 102.209 94.3432 100.193Z" fill="url(#paint18_linear_12_1439)"/>
<path fill-rule="evenodd" clip-rule="evenodd" d="M119.481 108.437L117.618 108.164L115.142 107.244C112.408 101.078 111.892 95.0864 113.593 89.2697L114.105 89.4779C113.485 95.4807 115.277 101.8 119.481 108.437Z" fill="url(#paint19_linear_12_1439)"/>
<path fill-rule="evenodd" clip-rule="evenodd" d="M119.481 108.437C118.239 108.255 117.618 108.164 117.618 108.164C114.11 101.38 112.939 95.1515 114.105 89.478C113.485 95.4808 115.277 101.8 119.481 108.437Z" fill="url(#paint20_linear_12_1439)"/>
<path fill-rule="evenodd" clip-rule="evenodd" d="M113.691 89.6246L113.728 89.484L113.755 89.349C115.188 88.4527 116.741 89.2158 117.087 90.2216C117.318 90.8922 117.125 91.5331 116.51 92.1444C116.379 91.0747 115.44 90.2348 113.691 89.6246Z" fill="url(#paint21_linear_12_1439)"/>
<path fill-rule="evenodd" clip-rule="evenodd" d="M113.722 89.3029C114.933 86.9182 116.546 86.2187 118.564 87.2045C117.146 87.5053 116.137 87.9437 115.535 88.5195C114.934 89.0953 114.361 89.413 113.816 89.4726L113.722 89.3029Z" fill="url(#paint22_linear_12_1439)"/>
<path fill-rule="evenodd" clip-rule="evenodd" d="M113.706 89.5704C113.137 88.2058 113.056 87.1197 113.463 86.3122C113.869 85.5047 114.881 85.1562 116.499 85.2668C114.968 86.2612 114.181 87.2633 114.138 88.2732C114.095 89.283 113.951 89.7154 113.706 89.5704Z" fill="url(#paint23_linear_12_1439)"/>
<path fill-rule="evenodd" clip-rule="evenodd" d="M113.501 89.289C111.967 87.8899 110.787 87.6688 109.962 88.6255C109.918 87.5595 110.315 86.8936 111.155 86.6278C111.995 86.3619 112.885 87.2273 113.825 89.2239L113.501 89.289Z" fill="url(#paint24_linear_12_1439)"/>
<path fill-rule="evenodd" clip-rule="evenodd" d="M113.592 89.5796C111.848 89.615 110.936 90.3892 110.854 91.9023C110.008 91.0006 109.969 90.1188 110.739 89.257C111.51 88.3952 112.576 88.4188 113.939 89.3277L113.592 89.5796Z" fill="url(#paint25_linear_12_1439)"/>
<path d="M113.59 89.8647C113.811 89.8054 113.943 89.5777 113.883 89.3563C113.824 89.1348 113.597 89.0034 113.375 89.0627C113.154 89.1221 113.022 89.3497 113.081 89.5712C113.141 89.7926 113.368 89.9241 113.59 89.8647Z" fill="url(#paint26_linear_12_1439)"/>
<path d="M114.158 89.8152C114.38 89.7558 114.511 89.5282 114.452 89.3067C114.393 89.0852 114.165 88.9538 113.943 89.0132C113.722 89.0725 113.591 89.3001 113.65 89.5216C113.709 89.7431 113.937 89.8745 114.158 89.8152Z" fill="url(#paint27_linear_12_1439)"/>
<path fill-rule="evenodd" clip-rule="evenodd" d="M96.8707 110.471C97.3053 109.027 98.5283 107.884 100.54 107.042C105.866 104.813 102.722 98.8876 110.095 97.9343C117.468 96.981 125.865 93.4072 131.498 92.3464L120.308 107.573L98.4114 113.98C97.8483 112.844 97.3336 111.673 96.8707 110.471Z" fill="url(#paint28_linear_12_1439)"/>
<path fill-rule="evenodd" clip-rule="evenodd" d="M97.755 112.591C118.38 93.1859 144.597 84.9476 176.409 87.8763C180.382 109.004 167.453 129.951 146.344 135.607C126.403 140.95 105.961 130.827 97.755 112.591Z" fill="url(#paint29_linear_12_1439)"/>
<path fill-rule="evenodd" clip-rule="evenodd" d="M128.831 136.477C132.17 133.1 133.493 127.421 132.764 120.398C131.064 104.015 135.969 96.7218 156.926 97.0491C169.665 97.2481 176.249 94.7216 176.676 89.4695C179.727 110.048 166.922 130.093 146.344 135.607C140.44 137.189 134.492 137.415 128.831 136.477Z" fill="url(#paint30_linear_12_1439)"/>
<path fill-rule="evenodd" clip-rule="evenodd" d="M107.118 125.719C106.457 120.858 109.059 116.565 114.925 112.842C127.127 105.097 127.294 92.4187 140.205 94.5114C148.813 95.9065 154.903 96.7399 158.475 97.0115C142.482 96.802 134.306 101.102 133.947 109.912C133.498 120.951 134.751 132.361 130.143 136.673C121.479 135.521 113.417 131.647 107.118 125.719Z" fill="url(#paint31_linear_12_1439)"/>
<path fill-rule="evenodd" clip-rule="evenodd" d="M130.104 136.667C140.546 135.006 139.02 124.22 146.231 122.288C153.458 120.351 163.08 119.784 164.271 110.306C164.973 104.713 169.257 99.6678 177.123 95.1702C177.285 113.641 165.014 130.605 146.344 135.607C140.881 137.071 135.38 137.374 130.104 136.667L130.104 136.667Z" fill="url(#paint32_linear_12_1439)"/>
<path fill-rule="evenodd" clip-rule="evenodd" d="M100.585 77.6506C100.854 75.3645 101.881 74.1663 103.665 74.056C106.342 73.8905 106.199 76.3396 108.942 73.9875C111.684 71.6354 114.888 73.8182 114.888 73.8182C114.888 73.8182 110.12 75.0957 100.585 77.6506Z" fill="url(#paint33_linear_12_1439)"/>
<path fill-rule="evenodd" clip-rule="evenodd" d="M146.408 59.166C135.588 62.0651 130.178 63.5147 130.178 63.5147C130.178 63.5147 132.088 59.552 136.117 60.3074C140.147 61.0629 138.617 58.7371 141.342 57.381C143.158 56.477 144.847 57.072 146.408 59.166Z" fill="url(#paint34_linear_12_1439)"/>
</g>
</g>
<g filter="url(#filter1_d_12_1439)">
<rect x="48" y="36" width="128" height="160" rx="24" transform="rotate(-15 48 36)" fill="#141416"/>
<rect x="48.6124" y="36.3536" width="127" height="159" rx="23.5" transform="rotate(-15 48.6124 36.3536)" stroke="#353945"/>
</g>
<rect x="96" y="67" width="64" height="64" rx="32" fill="#58C27D"/>
<path fill-rule="evenodd" clip-rule="evenodd" d="M123 89C122.448 89 122 89.4477 122 90V91H121C119.343 91 118 92.3431 118 94V106C118 107.657 119.343 109 121 109H135C136.657 109 138 107.657 138 106V94C138 92.3431 136.657 91 135 91H134V90C134 89.4477 133.552 89 133 89C132.448 89 132 89.4477 132 90V91H124V90C124 89.4477 123.552 89 123 89ZM125 100C125 99.4477 125.448 99 126 99H133C133.552 99 134 99.4477 134 100C134 100.552 133.552 101 133 101H126C125.448 101 125 100.552 125 100ZM122 104C122 103.448 122.448 103 123 103H129C129.552 103 130 103.448 130 104C130 104.552 129.552 105 129 105H123C122.448 105 122 104.552 122 104Z" fill="#FCFCFD"/>
<rect width="8" height="8" rx="2" transform="matrix(0.939693 -0.34202 -0.34202 -0.939693 220.104 35.3804)" fill="#FFD166"/>
<rect width="12" height="12" rx="2" transform="matrix(0.939693 -0.34202 -0.34202 -0.939693 21.1042 206.38)" fill="#CDB4DB"/>
<defs>
<filter id="filter0_d_12_1439" x="36.8047" y="3.65405" width="190.875" height="271.402" filterUnits="userSpaceOnUse" color-interpolation-filters="sRGB">
<feFlood flood-opacity="0" result="BackgroundImageFix"/>
<feColorMatrix in="SourceAlpha" type="matrix" values="0 0 0 0 0 0 0 0 0 0 0 0 0 0 0 0 0 0 127 0" result="hardAlpha"/>
<feMorphology radius="48" operator="erode" in="SourceAlpha" result="effect1_dropShadow_12_1439"/>
<feOffset dy="64"/>
<feGaussianBlur stdDeviation="32"/>
<feColorMatrix type="matrix" values="0 0 0 0 0.0583333 0 0 0 0 0.0583333 0 0 0 0 0.0583333 0 0 0 0.08 0"/>
<feBlend mode="multiply" in2="BackgroundImageFix" result="effect1_dropShadow_12_1439"/>
<feBlend mode="normal" in="SourceGraphic" in2="effect1_dropShadow_12_1439" result="shape"/>
</filter>
<filter id="filter1_d_12_1439" x="40" y="2.87109" width="181.05" height="235.677" filterUnits="userSpaceOnUse" color-interpolation-filters="sRGB">
<feFlood flood-opacity="0" result="BackgroundImageFix"/>
<feColorMatrix in="SourceAlpha" type="matrix" values="0 0 0 0 0 0 0 0 0 0 0 0 0 0 0 0 0 0 127 0" result="hardAlpha"/>
<feMorphology radius="24" operator="erode" in="SourceAlpha" result="effect1_dropShadow_12_1439"/>
<feOffset dy="40"/>
<feGaussianBlur stdDeviation="16"/>
<feColorMatrix type="matrix" values="0 0 0 0 0.0583333 0 0 0 0 0.0583333 0 0 0 0 0.0583333 0 0 0 0.12 0"/>
<feBlend mode="multiply" in2="BackgroundImageFix" result="effect1_dropShadow_12_1439"/>
<feBlend mode="normal" in="SourceGraphic" in2="effect1_dropShadow_12_1439" result="shape"/>
</filter>
<linearGradient id="paint0_linear_12_1439" x1="50.3828" y1="44.7549" x2="223.178" y2="53.6171" gradientUnits="userSpaceOnUse">
<stop stop-color="#23262F"/>
<stop offset="1" stop-color="#23262F" stop-opacity="0.7"/>
</linearGradient>
<linearGradient id="paint1_linear_12_1439" x1="115.444" y1="57.9273" x2="127.011" y2="132.405" gradientUnits="userSpaceOnUse">
<stop stop-color="#EEFFFD"/>
<stop offset="1" stop-color="#B7FFF6"/>
</linearGradient>
<linearGradient id="paint2_linear_12_1439" x1="123.676" y1="88.6495" x2="125.382" y2="91.9153" gradientUnits="userSpaceOnUse">
<stop stop-color="#EEFFFD"/>
<stop offset="1" stop-color="#B7FFF6"/>
</linearGradient>
<linearGradient id="paint3_linear_12_1439" x1="149.973" y1="73.2832" x2="148.614" y2="88.29" gradientUnits="userSpaceOnUse">
<stop stop-color="#30A0DE"/>
<stop offset="1" stop-color="#194383"/>
</linearGradient>
<linearGradient id="paint4_linear_12_1439" x1="130.866" y1="77.5771" x2="134.203" y2="98.8669" gradientUnits="userSpaceOnUse">
<stop stop-color="#F9BB49"/>
<stop offset="1" stop-color="#F08523"/>
</linearGradient>
<linearGradient id="paint5_linear_12_1439" x1="132.089" y1="82.4071" x2="134.313" y2="96.6003" gradientUnits="userSpaceOnUse">
<stop stop-color="#F9BB49"/>
<stop offset="1" stop-color="#F08523"/>
</linearGradient>
<linearGradient id="paint6_linear_12_1439" x1="146.116" y1="75.7677" x2="147.244" y2="90.4945" gradientUnits="userSpaceOnUse">
<stop stop-color="#30A0DE"/>
<stop offset="1" stop-color="#194383"/>
</linearGradient>
<linearGradient id="paint7_linear_12_1439" x1="101.936" y1="103.408" x2="96.879" y2="89.3717" gradientUnits="userSpaceOnUse">
<stop stop-color="#DB593D"/>
<stop offset="1" stop-color="#F88461"/>
</linearGradient>
<linearGradient id="paint8_linear_12_1439" x1="101.48" y1="98.3475" x2="100.165" y2="88.8751" gradientUnits="userSpaceOnUse">
<stop stop-color="#CD4C30"/>
<stop offset="1" stop-color="#F88461" stop-opacity="0"/>
</linearGradient>
<linearGradient id="paint9_linear_12_1439" x1="102.228" y1="93.458" x2="102.187" y2="90.0507" gradientUnits="userSpaceOnUse">
<stop stop-color="#13DBBF"/>
<stop offset="1" stop-color="#08B58B"/>
</linearGradient>
<linearGradient id="paint10_linear_12_1439" x1="101.102" y1="89.4648" x2="101.638" y2="88.4615" gradientUnits="userSpaceOnUse">
<stop stop-color="#13DBBF"/>
<stop offset="1" stop-color="#08B58B"/>
</linearGradient>
<linearGradient id="paint11_linear_12_1439" x1="104.447" y1="86.0859" x2="101.52" y2="89.0587" gradientUnits="userSpaceOnUse">
<stop stop-color="#13DBBF"/>
<stop offset="1" stop-color="#08B58B"/>
</linearGradient>
<linearGradient id="paint12_linear_12_1439" x1="97.9224" y1="90.6358" x2="98.0607" y2="87.6123" gradientUnits="userSpaceOnUse">
<stop stop-color="#13DBBF"/>
<stop offset="1" stop-color="#08B58B"/>
</linearGradient>
<linearGradient id="paint13_linear_12_1439" x1="101.368" y1="90.4579" x2="97.906" y2="88.6159" gradientUnits="userSpaceOnUse">
<stop stop-color="#13DBBF"/>
<stop offset="1" stop-color="#08B58B"/>
</linearGradient>
<linearGradient id="paint14_linear_12_1439" x1="99.7637" y1="89.7837" x2="100.529" y2="89.9416" gradientUnits="userSpaceOnUse">
<stop stop-color="#E3F35C"/>
<stop offset="1" stop-color="#C3E22F"/>
</linearGradient>
<linearGradient id="paint15_linear_12_1439" x1="100.334" y1="89.774" x2="101.099" y2="89.9318" gradientUnits="userSpaceOnUse">
<stop stop-color="#E3F35C"/>
<stop offset="1" stop-color="#C3E22F"/>
</linearGradient>
<linearGradient id="paint16_linear_12_1439" x1="156.37" y1="79.3837" x2="154.238" y2="95.702" gradientUnits="userSpaceOnUse">
<stop stop-color="#30A0DE"/>
<stop offset="1" stop-color="#194383"/>
</linearGradient>
<linearGradient id="paint17_linear_12_1439" x1="156.472" y1="83.1581" x2="154.539" y2="95.6544" gradientUnits="userSpaceOnUse">
<stop stop-color="#30A0DE"/>
<stop offset="1" stop-color="#194383"/>
</linearGradient>
<linearGradient id="paint18_linear_12_1439" x1="131.44" y1="96.6245" x2="113.5" y2="112.445" gradientUnits="userSpaceOnUse">
<stop stop-color="#68C179"/>
<stop offset="1" stop-color="#25A062"/>
</linearGradient>
<linearGradient id="paint19_linear_12_1439" x1="115.772" y1="102.905" x2="110.867" y2="88.8049" gradientUnits="userSpaceOnUse">
<stop stop-color="#DB593D"/>
<stop offset="1" stop-color="#F88461"/>
</linearGradient>
<linearGradient id="paint20_linear_12_1439" x1="115.253" y1="97.8438" x2="113.736" y2="88.367" gradientUnits="userSpaceOnUse">
<stop stop-color="#CD4C30"/>
<stop offset="1" stop-color="#F88461" stop-opacity="0"/>
</linearGradient>
<linearGradient id="paint21_linear_12_1439" x1="115.369" y1="92.9895" x2="115.378" y2="89.6304" gradientUnits="userSpaceOnUse">
<stop stop-color="#13DBBF"/>
<stop offset="1" stop-color="#08B58B"/>
</linearGradient>
<linearGradient id="paint22_linear_12_1439" x1="114.42" y1="88.5121" x2="114.893" y2="87.4805" gradientUnits="userSpaceOnUse">
<stop stop-color="#13DBBF"/>
<stop offset="1" stop-color="#08B58B"/>
</linearGradient>
<linearGradient id="paint23_linear_12_1439" x1="116.688" y1="84.6252" x2="114.006" y2="88.073" gradientUnits="userSpaceOnUse">
<stop stop-color="#13DBBF"/>
<stop offset="1" stop-color="#08B58B"/>
</linearGradient>
<linearGradient id="paint24_linear_12_1439" x1="110.967" y1="90.0501" x2="111.141" y2="87.4693" gradientUnits="userSpaceOnUse">
<stop stop-color="#13DBBF"/>
<stop offset="1" stop-color="#08B58B"/>
</linearGradient>
<linearGradient id="paint25_linear_12_1439" x1="114.668" y1="90.4183" x2="111.147" y2="88.4355" gradientUnits="userSpaceOnUse">
<stop stop-color="#13DBBF"/>
<stop offset="1" stop-color="#08B58B"/>
</linearGradient>
<linearGradient id="paint26_linear_12_1439" x1="112.99" y1="89.4571" x2="113.755" y2="89.6149" gradientUnits="userSpaceOnUse">
<stop stop-color="#E3F35C"/>
<stop offset="1" stop-color="#C3E22F"/>
</linearGradient>
<linearGradient id="paint27_linear_12_1439" x1="113.558" y1="89.4075" x2="114.324" y2="89.5654" gradientUnits="userSpaceOnUse">
<stop stop-color="#E3F35C"/>
<stop offset="1" stop-color="#C3E22F"/>
</linearGradient>
<linearGradient id="paint28_linear_12_1439" x1="129.823" y1="98.4069" x2="113.931" y2="107.306" gradientUnits="userSpaceOnUse">
<stop stop-color="#68C179"/>
<stop offset="1" stop-color="#25A062"/>
</linearGradient>
<linearGradient id="paint29_linear_12_1439" x1="141.228" y1="102.494" x2="136.775" y2="128.797" gradientUnits="userSpaceOnUse">
<stop stop-color="#77EBFF"/>
<stop offset="1" stop-color="#4D86DE"/>
</linearGradient>
<linearGradient id="paint30_linear_12_1439" x1="178.391" y1="100.499" x2="142.526" y2="152.953" gradientUnits="userSpaceOnUse">
<stop stop-color="#91F6FF"/>
<stop offset="1" stop-color="#4D86DE"/>
</linearGradient>
<linearGradient id="paint31_linear_12_1439" x1="136.757" y1="98.9419" x2="131.051" y2="138.636" gradientUnits="userSpaceOnUse">
<stop stop-color="#77EBFF"/>
<stop offset="1" stop-color="#4D86DE"/>
</linearGradient>
<linearGradient id="paint32_linear_12_1439" x1="161.671" y1="111.359" x2="138.53" y2="150.485" gradientUnits="userSpaceOnUse">
<stop stop-color="#91F6FF"/>
<stop offset="1" stop-color="#4D86DE"/>
</linearGradient>
<linearGradient id="paint33_linear_12_1439" x1="109.173" y1="73.8765" x2="100.961" y2="79.3662" gradientUnits="userSpaceOnUse">
<stop stop-color="#C1FFF7"/>
<stop offset="1" stop-color="#93E9DE"/>
</linearGradient>
<linearGradient id="paint34_linear_12_1439" x1="139.923" y1="59.2321" x2="130.605" y2="65.4615" gradientUnits="userSpaceOnUse">
<stop stop-color="#C1FFF7"/>
<stop offset="1" stop-color="#93E9DE"/>
</linearGradient>
<clipPath id="clip0_12_1439">
<rect x="52.8047" y="34.7124" width="120" height="166" rx="24" transform="rotate(-15 52.8047 34.7124)" fill="white"/>
</clipPath>
</defs>
</svg>
