<svg width="160" height="160" viewBox="0 0 160 160" fill="none" xmlns="http://www.w3.org/2000/svg">
<path d="M80 140C113.137 140 140 113.137 140 80C140 46.8629 113.137 20 80 20C46.8629 20 20 46.8629 20 80C20 113.137 46.8629 140 80 140Z" fill="url(#paint0_linear_12_532)"/>
<path fill-rule="evenodd" clip-rule="evenodd" d="M139.963 82.1216C119.922 80.6453 98.9017 81.1586 76.9028 83.6616C54.9648 86.1577 36.8062 90.5863 22.4269 96.9476C20.8474 91.5732 20 85.8856 20 80C20 75.1485 20.5758 70.4314 21.6629 65.9134C26.3531 62.5942 32.7834 64.5623 37.741 69.3C45.3999 76.6192 51.4314 80.2153 62.2881 69.3C73.1448 58.3848 79.6346 60.9091 86.1017 69.3C92.5687 77.6909 98.6641 75.5626 112.274 73.524C120.437 72.3012 129.679 74.5743 139.999 80.3434C139.996 80.9382 139.984 81.531 139.963 82.1216V82.1216Z" fill="url(#paint1_linear_12_532)"/>
<path fill-rule="evenodd" clip-rule="evenodd" d="M20.01 81.1089C25.5216 74.4551 32.2509 72.5756 40.1978 75.4704C56.2961 81.3346 57.6981 80.1411 64.5132 75.4704C71.3284 70.7998 71.0372 67.7726 80 73.1624C88.9628 78.5523 95.9242 81.4915 103.587 78.852C111.249 76.2124 120.572 71.2553 129.46 81.2222C109.085 80.5396 91.4145 81.4942 76.448 84.0859C59.3944 87.0391 35.1697 97.8404 24.5094 102.862C21.7362 96.1385 20.1494 88.8005 20.01 81.1089Z" fill="url(#paint2_linear_12_532)"/>
<path fill-rule="evenodd" clip-rule="evenodd" d="M22.428 96.9513C51.2287 82.6199 90.4099 77.588 139.972 81.8555C138.991 114.134 112.516 140 80 140C52.7499 140 29.7426 121.834 22.428 96.9513Z" fill="url(#paint3_linear_12_532)"/>
<path fill-rule="evenodd" clip-rule="evenodd" d="M22.3837 96.7998C46.9115 83.8515 80.2071 78.5156 122.271 80.7921C115.87 80.7921 91.4299 80.7921 76.4067 88.6487C61.3834 96.5053 64.7798 101.518 75.4534 105.902C86.127 110.285 79.5847 117.186 75.4534 117.186C72.6992 117.186 67.7084 116.324 60.481 114.598C52.5301 113.172 43.6011 114.358 33.6939 118.157C28.5811 111.959 24.6885 104.718 22.3837 96.7998Z" fill="url(#paint4_linear_12_532)"/>
<path fill-rule="evenodd" clip-rule="evenodd" d="M33.1039 117.43C46.3656 111.777 58.7262 111.138 70.1856 115.514C94.1825 124.677 106.329 107.651 112.416 93.538C117.102 82.6727 132.944 80.9994 139.987 81.2689C139.312 113.82 112.713 140 80 140C61.02 140 44.0984 131.187 33.1039 117.43H33.1039Z" fill="url(#paint5_linear_12_532)"/>
<path fill-rule="evenodd" clip-rule="evenodd" d="M69.4408 139.074C69.3546 139.058 69.2684 139.043 69.1824 139.027V139.016C69.2688 139.035 69.355 139.055 69.4408 139.074H69.4408Z" fill="url(#paint6_linear_12_532)"/>
<path fill-rule="evenodd" clip-rule="evenodd" d="M77.2582 139.938C80.0689 139.812 82.1431 139.037 83.4808 137.613C87.0787 133.784 78.2628 124.684 91.9527 123.93C105.643 123.176 122.784 124.864 117.475 113.589C112.169 102.321 118.632 81.3659 139.985 81.3413C139.272 113.859 112.689 140 80 140C79.0811 140 78.167 139.979 77.2582 139.938Z" fill="url(#paint7_linear_12_532)"/>
<path fill-rule="evenodd" clip-rule="evenodd" d="M75.2688 62.231C76.7235 57.8949 78.8334 53.969 80 50.8043C82.849 43.0753 89.4502 41.7873 89.4502 35.1569C89.4502 28.5264 95.1971 27.1765 98.2939 21.4C101.391 15.6235 104.274 21.9762 107.63 27.1765C110.986 32.3767 114.677 31.8199 114.677 41.7873C114.677 51.7546 121.619 51.8624 125.735 60.9158C127.987 65.8675 131.167 71.5995 135.276 78.1115C126.838 74.1533 119.171 72.6907 112.274 73.7239C98.6641 75.7625 92.5687 77.8908 86.1017 69.5C82.7065 65.0948 79.3051 62.3066 75.2688 62.231Z" fill="url(#paint8_linear_12_532)"/>
<path fill-rule="evenodd" clip-rule="evenodd" d="M107.63 27.1765C110.986 32.3767 114.677 31.82 114.677 41.7873C114.677 51.7547 121.619 51.8624 125.735 60.9158C127.987 65.8676 131.167 71.5995 135.276 78.1116C126.838 74.1533 119.171 72.6908 112.274 73.7239C98.6641 75.7626 95 65.6414 99.6438 61.6509C104.288 57.6603 113.11 51.3298 109.174 47.0795C105.238 42.8293 106.086 39.5194 107.63 35.928C108.279 34.4087 108.604 32.944 108.604 31.5339C108.604 29.4188 107.63 27.1765 107.63 27.1765Z" fill="url(#paint9_linear_12_532)"/>
<path fill-rule="evenodd" clip-rule="evenodd" d="M113.353 73.5834C112.991 73.6236 112.631 73.6704 112.274 73.724C98.6641 75.7626 92.5687 77.8909 86.1017 69.5C79.6346 61.1091 73.1448 58.5848 62.2881 69.5C51.4314 80.4153 45.3999 76.8192 37.741 69.5C35.3598 67.2245 32.6389 65.5879 29.9343 64.8692C31.0987 62.6663 32.2334 60.3515 32.8221 58.0011C34.3294 51.9833 34.0233 48.4399 38.8632 45.9782C43.7032 43.5165 45.1667 41.281 45.1667 34.2119C45.1667 27.1428 53.7848 27.3128 52.7596 20.4859C51.7345 13.659 56.4105 13.8219 60.7414 9.56166C65.0724 5.30139 70.0757 17.127 74.0228 20.4859C77.9698 23.8448 74.7814 26.9357 78.3912 29.5734C82.001 32.2112 82.0774 32.079 83.3669 37.8295C84.2266 41.6633 86.3978 44.3795 89.8803 45.9782C91.5747 46.7066 94.2388 47.0708 97.8724 47.0708C103.323 47.0708 102.312 52.6802 102.312 58.0011C102.312 63.322 107.646 65.7842 111.652 70.7727C112.395 71.6976 112.962 72.6345 113.353 73.5834H113.353Z" fill="url(#paint10_linear_12_532)"/>
<path fill-rule="evenodd" clip-rule="evenodd" d="M56.8623 15.8413C53.6945 19.4594 63.8334 24.3754 58.9887 32.4342C54.1439 40.4929 71.1073 45.9783 61.8818 53.9561C55.7315 59.2745 55.8669 64.4559 62.2881 69.5001C51.4314 80.4154 45.3999 76.8193 37.741 69.5001C35.3598 67.2246 32.6389 65.588 29.9343 64.8693C31.0987 62.6664 32.2334 60.3516 32.8221 58.0012C34.3294 51.9834 34.0233 48.44 38.8632 45.9783C43.7032 43.5166 45.1667 41.2811 45.1667 34.212C45.1667 27.1429 53.7848 27.3129 52.7596 20.486C51.7345 13.6591 56.4105 13.822 60.7414 9.56177C60.2671 11.3361 58.9741 13.4293 56.8623 15.8413Z" fill="url(#paint11_linear_12_532)"/>
<path fill-rule="evenodd" clip-rule="evenodd" d="M45.6278 80.9486C41.6748 81.7398 39.4828 80.8485 39.052 78.2746C38.4056 74.4137 44.0558 72.3558 41.2307 68.3405C38.4056 64.3251 43.5011 60.979 42.9376 57.1676C42.3741 53.3563 44.143 51.6262 47.9038 59.9546C51.6645 68.2831 45.9264 67.4115 49.4558 73.4145C51.8087 77.4166 50.5327 79.9279 45.6278 80.9486Z" fill="url(#paint12_linear_12_532)"/>
<path fill-rule="evenodd" clip-rule="evenodd" d="M44.8743 63.5436C46.2666 65.9491 45.0821 67.8775 44.6489 69.3157C44.2157 70.7538 44.5216 73.1002 44.8743 74.2213C45.227 75.3424 44.795 77.9101 44.6489 78.8628C44.5028 79.8155 44.9622 81.0721 44.6489 81.1152C41.3115 81.5746 39.4459 80.6277 39.052 78.2747C38.4056 74.4138 44.0558 72.3559 41.2307 68.3406C38.4056 64.3252 43.5011 60.9791 42.9376 57.1677C43.3005 59.8147 43.9461 61.94 44.8743 63.5436Z" fill="url(#paint13_linear_12_532)"/>
<path fill-rule="evenodd" clip-rule="evenodd" d="M42.9579 88.33C44.2533 82.7827 44.439 79.4333 43.5152 78.2817C42.1294 76.5544 41.9352 74.8469 42.9579 76.3242C43.9806 77.8015 45.05 78.2389 44.3669 74.089C43.6837 69.939 45.8117 65.508 45.4485 67.179C45.0853 68.8501 44.2465 71.6102 45.1182 74.089C45.99 76.5677 43.8228 78.8568 46.7739 77.7116C49.725 76.5664 47.8457 77.7257 46.4705 78.8387C45.0952 79.9517 45.0688 79.9613 45.63 82.6913C46.0042 84.5113 46.1241 86.0871 45.99 87.4188L42.9579 88.33Z" fill="url(#paint14_linear_12_532)"/>
<path fill-rule="evenodd" clip-rule="evenodd" d="M69.6281 78.0346C67.1063 78.5406 65.708 77.9706 65.4331 76.3245C65.0208 73.8553 68.6253 72.5392 66.823 69.9713C65.0208 67.4033 68.2714 65.2634 67.9119 62.8259C67.5524 60.3884 68.6809 59.2819 71.08 64.6083C73.4791 69.9346 69.8186 69.3771 72.0701 73.2163C73.5711 75.7758 72.7571 77.3818 69.6281 78.0346Z" fill="url(#paint15_linear_12_532)"/>
<path fill-rule="evenodd" clip-rule="evenodd" d="M69.1474 66.9036C70.0356 68.4419 69.2799 69.6752 69.0036 70.595C68.7273 71.5147 68.9224 73.0153 69.1474 73.7323C69.3724 74.4492 69.0968 76.0914 69.0036 76.7007C68.9104 77.3099 69.2035 78.1136 69.0036 78.1412C66.8746 78.4349 65.6844 77.8294 65.4331 76.3246C65.0208 73.8554 68.6253 72.5393 66.823 69.9713C65.0208 67.4034 68.2714 65.2634 67.9119 62.8259C68.1434 64.5188 68.5553 65.878 69.1474 66.9036Z" fill="url(#paint16_linear_12_532)"/>
<path fill-rule="evenodd" clip-rule="evenodd" d="M67.9249 82.7552C68.7512 79.2074 68.8697 77.0654 68.2804 76.3289C67.3964 75.2242 67.2725 74.1322 67.9249 75.077C68.5773 76.0218 69.2595 76.3015 68.8237 73.6475C68.3879 70.9935 69.7454 68.1597 69.5137 69.2284C69.282 70.2971 68.7469 72.0623 69.303 73.6475C69.8591 75.2327 68.4766 76.6967 70.3592 75.9643C72.2418 75.2319 71.043 75.9733 70.1656 76.6851C69.2883 77.3969 69.2715 77.4031 69.6295 79.149C69.8682 80.3129 69.9501 81.4196 69.8753 82.469L67.9249 82.7552Z" fill="url(#paint17_linear_12_532)"/>
<path d="M64.8336 83.1101L65.0113 83.2019C60.4015 92.1223 57.3411 97.6819 55.8267 99.8862L55.6619 99.7729C57.1696 97.5783 60.228 92.0222 64.8336 83.1101Z" fill="#123874"/>
<path fill-rule="evenodd" clip-rule="evenodd" d="M86.0747 96.8727L88.4224 97.5627C86.4156 98.4814 84.9936 99.4422 84.1565 100.445C79.8393 101.08 76.1479 101.954 73.0823 103.067C65.6551 102.36 60.5279 100.904 57.7007 98.6976L64.7028 89.1658L86.0747 96.8727Z" fill="url(#paint18_linear_12_532)"/>
<path fill-rule="evenodd" clip-rule="evenodd" d="M83.7124 99.4545C85.515 98.1862 87.0932 97.552 88.447 97.552C85.0138 93.5637 82.0026 89.1798 79.4134 84.4004L71.16 88.1704L77.7149 98.6376L80.6516 97.904H82.7277L83.7124 99.4545Z" fill="url(#paint19_linear_12_532)"/>
<path fill-rule="evenodd" clip-rule="evenodd" d="M57.699 98.5911C61.3775 100.561 66.4682 101.747 72.9712 102.15C76.1588 100.808 78.9768 100.137 81.4252 100.137C80.2121 96.6974 79.5339 91.4254 79.3905 84.3208C75.9031 84.4488 73.0776 84.4488 70.9141 84.3208C68.7505 84.1929 66.7417 83.7941 64.8876 83.1245C63.6766 86.6958 62.4706 89.6038 61.2696 91.8484C60.0686 94.0931 58.8784 96.3407 57.699 98.5911Z" fill="url(#paint20_linear_12_532)"/>
<path fill-rule="evenodd" clip-rule="evenodd" d="M57.699 98.5911C61.3775 100.561 66.4682 101.747 72.9712 102.15C75.5694 96.8119 77.7091 90.869 79.3905 84.3208C75.9031 84.4488 73.0776 84.4488 70.9141 84.3208C68.7505 84.1929 66.7417 83.7941 64.8876 83.1245C63.6766 86.6958 62.4706 89.6038 61.2696 91.8484C60.0686 94.0931 58.8784 96.3407 57.699 98.5911Z" fill="url(#paint21_linear_12_532)"/>
<path fill-rule="evenodd" clip-rule="evenodd" d="M83.7123 99.4545C85.5149 98.1862 87.0932 97.552 88.447 97.552C85.0138 93.5637 82.0026 89.1798 79.4133 84.4004C79.898 88.0076 80.3419 90.6327 80.7451 92.2757C81.0784 93.6335 81.7393 95.5096 82.7277 97.904L83.7123 99.4545Z" fill="url(#paint22_linear_12_532)"/>
<path d="M73.8882 104.38L73.7078 104.294C74.9937 101.61 76.8689 95.0128 79.3295 84.5118L79.3819 84.2881L79.5099 84.4789C83.5847 90.5525 87.4386 95.0227 91.07 97.8891L90.9461 98.0461C87.3343 95.1951 83.5101 90.7734 79.4719 84.7807C77.0335 95.1673 75.1735 101.697 73.8882 104.38Z" fill="#123874"/>
<path fill-rule="evenodd" clip-rule="evenodd" d="M91.5194 97.3361L90.9495 98.046L90.9088 97.9368L91.2347 97.2017L91.5194 97.3361Z" fill="#123874"/>
<path fill-rule="evenodd" clip-rule="evenodd" d="M73.1264 104.101L73.3177 103.823L73.9261 104.27L73.8854 104.379L73.1264 104.101Z" fill="#123874"/>
<path fill-rule="evenodd" clip-rule="evenodd" d="M55.087 99.5292L55.2697 99.2529L55.8608 99.7822L55.8271 99.8844L55.087 99.5292Z" fill="#123874"/>
<defs>
<linearGradient id="paint0_linear_12_532" x1="76.837" y1="69.5152" x2="96.1639" y2="21.8848" gradientUnits="userSpaceOnUse">
<stop stop-color="#D5EDF3"/>
<stop offset="1" stop-color="#A2DBD8"/>
</linearGradient>
<linearGradient id="paint1_linear_12_532" x1="99.4038" y1="78.3865" x2="68.0315" y2="103.704" gradientUnits="userSpaceOnUse">
<stop stop-color="#2FAC6D"/>
<stop offset="1" stop-color="#007846"/>
</linearGradient>
<linearGradient id="paint2_linear_12_532" x1="127.55" y1="85.1353" x2="53.3673" y2="111.194" gradientUnits="userSpaceOnUse">
<stop stop-color="#2FAC6D"/>
<stop offset="1" stop-color="#007846"/>
</linearGradient>
<linearGradient id="paint3_linear_12_532" x1="136.193" y1="102.527" x2="71.1385" y2="136.161" gradientUnits="userSpaceOnUse">
<stop stop-color="#68C179"/>
<stop offset="1" stop-color="#25A062"/>
</linearGradient>
<linearGradient id="paint4_linear_12_532" x1="113.925" y1="96.7316" x2="76.2445" y2="114.581" gradientUnits="userSpaceOnUse">
<stop stop-color="#68C179"/>
<stop offset="1" stop-color="#25A062"/>
</linearGradient>
<linearGradient id="paint5_linear_12_532" x1="89.7285" y1="100.402" x2="85.4266" y2="122.409" gradientUnits="userSpaceOnUse">
<stop stop-color="#77EBFF"/>
<stop offset="1" stop-color="#4D86DE"/>
</linearGradient>
<linearGradient id="paint6_linear_12_532" x1="69.4051" y1="139.031" x2="69.384" y2="139.119" gradientUnits="userSpaceOnUse">
<stop stop-color="#91F6FF"/>
<stop offset="1" stop-color="#4D86DE"/>
</linearGradient>
<linearGradient id="paint7_linear_12_532" x1="131.335" y1="90.5936" x2="85.4071" y2="157.544" gradientUnits="userSpaceOnUse">
<stop stop-color="#91F6FF"/>
<stop offset="1" stop-color="#4D86DE"/>
</linearGradient>
<linearGradient id="paint8_linear_12_532" x1="107.028" y1="29.0879" x2="90.6604" y2="77.303" gradientUnits="userSpaceOnUse">
<stop stop-color="#30A0DE"/>
<stop offset="1" stop-color="#194383"/>
</linearGradient>
<linearGradient id="paint9_linear_12_532" x1="109.17" y1="97.9217" x2="138.958" y2="-15.4176" gradientUnits="userSpaceOnUse">
<stop stop-color="#30A0DE"/>
<stop offset="1" stop-color="#194383"/>
</linearGradient>
<linearGradient id="paint10_linear_12_532" x1="74.0847" y1="27.2275" x2="62.3353" y2="74.0876" gradientUnits="userSpaceOnUse">
<stop stop-color="#30A0DE"/>
<stop offset="1" stop-color="#194383"/>
</linearGradient>
<linearGradient id="paint11_linear_12_532" x1="49.143" y1="28.1793" x2="36.5898" y2="86.1445" gradientUnits="userSpaceOnUse">
<stop stop-color="#30A0DE"/>
<stop offset="1" stop-color="#194383"/>
</linearGradient>
<linearGradient id="paint12_linear_12_532" x1="44.8" y1="54" x2="44.8" y2="74.7031" gradientUnits="userSpaceOnUse">
<stop stop-color="#68C179"/>
<stop offset="1" stop-color="#1FA063"/>
</linearGradient>
<linearGradient id="paint13_linear_12_532" x1="42.3244" y1="58.8237" x2="40.6183" y2="81.1068" gradientUnits="userSpaceOnUse">
<stop stop-color="#68C179"/>
<stop offset="1" stop-color="#1FA063"/>
</linearGradient>
<linearGradient id="paint14_linear_12_532" x1="45.2806" y1="91.5299" x2="45.8482" y2="75.2972" gradientUnits="userSpaceOnUse">
<stop stop-color="#006239"/>
<stop offset="1" stop-color="#007846"/>
</linearGradient>
<linearGradient id="paint15_linear_12_532" x1="69.1" y1="60.8" x2="69.1" y2="74.0404" gradientUnits="userSpaceOnUse">
<stop stop-color="#68C179"/>
<stop offset="1" stop-color="#1FA063"/>
</linearGradient>
<linearGradient id="paint16_linear_12_532" x1="67.5206" y1="63.885" x2="66.4322" y2="78.1362" gradientUnits="userSpaceOnUse">
<stop stop-color="#68C179"/>
<stop offset="1" stop-color="#1FA063"/>
</linearGradient>
<linearGradient id="paint17_linear_12_532" x1="69.3599" y1="91.3675" x2="70.318" y2="75.9309" gradientUnits="userSpaceOnUse">
<stop stop-color="#006239"/>
<stop offset="1" stop-color="#008D52"/>
</linearGradient>
<linearGradient id="paint18_linear_12_532" x1="120.745" y1="95.3129" x2="68.6511" y2="104.92" gradientUnits="userSpaceOnUse">
<stop stop-color="#68C179"/>
<stop offset="1" stop-color="#139553"/>
</linearGradient>
<linearGradient id="paint19_linear_12_532" x1="79.8035" y1="86.2193" x2="80.6642" y2="93.1626" gradientUnits="userSpaceOnUse">
<stop stop-color="#F9BB49"/>
<stop offset="1" stop-color="#CD6709"/>
</linearGradient>
<linearGradient id="paint20_linear_12_532" x1="71.4309" y1="84.1681" x2="75.7576" y2="102.379" gradientUnits="userSpaceOnUse">
<stop stop-color="#F9BB49"/>
<stop offset="1" stop-color="#F08523"/>
</linearGradient>
<linearGradient id="paint21_linear_12_532" x1="68.5448" y1="85.3194" x2="67.2798" y2="95.7126" gradientUnits="userSpaceOnUse">
<stop stop-color="#F9BB49"/>
<stop offset="1" stop-color="#F08523"/>
</linearGradient>
<linearGradient id="paint22_linear_12_532" x1="83.9302" y1="84.4004" x2="83.2501" y2="95.0166" gradientUnits="userSpaceOnUse">
<stop stop-color="#F9BB49"/>
<stop offset="1" stop-color="#F08523"/>
</linearGradient>
</defs>
</svg>
