<svg width="256" height="269" viewBox="0 0 256 269" fill="none" xmlns="http://www.w3.org/2000/svg">
<path d="M171.709 50.4589C186.296 59.648 198.496 72.4628 205.511 88.2114C212.401 103.678 212.23 120.868 210.58 137.719C208.898 154.906 205.912 172.233 195.91 186.31C185.477 200.993 170.743 212.754 153.519 218.023C136.388 223.264 118.23 220.02 100.93 215.368C83.6175 210.713 65.5759 205.025 54.0643 191.282C42.7164 177.734 42.2601 158.929 39.092 141.543C35.8725 123.874 29.5262 105.854 35.4056 88.884C41.4497 71.4388 55.6125 57.8421 71.4046 48.2778C86.7447 38.9872 104.745 35.6403 122.675 36.0302C140.061 36.4082 156.995 41.1901 171.709 50.4589Z" fill="url(#paint0_linear_12_1490)"/>
<g filter="url(#filter0_d_12_1490)">
<g clip-path="url(#clip0_12_1490)">
<rect width="120" height="166" rx="24" transform="matrix(-0.965926 -0.258819 -0.258819 0.965926 208.245 34.7124)" fill="#141416"/>
<path d="M114.706 135.607C92.559 129.673 79.4161 106.909 85.3503 84.7616C91.2846 62.6147 114.049 49.4717 136.196 55.406C158.343 61.3402 171.486 84.1045 165.551 106.251C159.617 128.398 136.853 141.541 114.706 135.607Z" fill="url(#paint1_linear_12_1490)"/>
<path fill-rule="evenodd" clip-rule="evenodd" d="M166.879 92.6518C162.291 93.6909 157.648 91.9277 152.95 87.3621C145.156 79.7876 143.476 75.7385 132.784 80.1141C122.092 84.4898 117.26 76.4144 111.438 69.4666C108.907 66.4454 104.893 63.5396 100.56 62.2782C93.3646 67.6608 87.8565 75.4082 85.3503 84.7615C83.4255 91.9452 83.5078 99.1938 85.2534 105.912C121.885 111.679 147.104 115.414 160.911 117.117C162.921 113.815 164.5 110.174 165.551 106.251C166.773 101.694 167.186 97.1097 166.879 92.6518Z" fill="url(#paint2_linear_12_1490)"/>
<path fill-rule="evenodd" clip-rule="evenodd" d="M99.8656 77.4062L113.547 71.8284L117.569 68.1285L121.228 72.4883L125.106 90.9836L95.664 85.3822L99.8656 77.4062Z" fill="url(#paint3_linear_12_1490)"/>
<path opacity="0.1" d="M122.34 106.851C114.256 104.685 109.459 96.3756 111.625 88.2919C113.791 80.2083 122.1 75.4111 130.183 77.5771C138.267 79.7431 143.064 88.0521 140.898 96.1357C138.732 104.219 130.423 109.017 122.34 106.851Z" fill="url(#paint4_linear_12_1490)"/>
<path d="M123.732 101.923C118.343 100.479 115.144 94.9394 116.588 89.5503C118.032 84.1613 123.572 80.9631 128.961 82.4071C134.35 83.8511 137.548 89.3904 136.104 94.7795C134.66 100.169 129.121 103.367 123.732 101.923Z" fill="url(#paint5_linear_12_1490)"/>
<path fill-rule="evenodd" clip-rule="evenodd" d="M110.194 83.5361L117.007 75.9711L117.569 68.1285L121.228 72.4883L125.106 90.9836L95.664 85.3822L110.194 83.5361Z" fill="url(#paint6_linear_12_1490)"/>
<path fill-rule="evenodd" clip-rule="evenodd" d="M156.133 109.136C159.864 102.222 161.211 95.7931 160.173 89.8482L160.67 89.6048C162.772 95.2887 162.675 101.302 160.379 107.644L157.973 108.734L156.133 109.136Z" fill="url(#paint7_linear_12_1490)"/>
<path fill-rule="evenodd" clip-rule="evenodd" d="M156.133 109.136C159.864 102.222 161.211 95.793 160.173 89.8481C161.732 95.4265 160.998 101.722 157.973 108.734C157.973 108.734 157.359 108.868 156.133 109.136Z" fill="url(#paint8_linear_12_1490)"/>
<path fill-rule="evenodd" clip-rule="evenodd" d="M160.596 89.9654C158.895 90.6961 158.016 91.5995 157.96 92.6757C157.304 92.1088 157.067 91.4829 157.25 90.7979C157.526 89.7703 159.021 88.9008 160.513 89.6949L160.55 89.8277L160.596 89.9654Z" fill="url(#paint9_linear_12_1490)"/>
<path fill-rule="evenodd" clip-rule="evenodd" d="M160.82 89.5504C158.932 87.6565 157.181 87.49 155.567 89.0509C157.008 88.8991 158.104 89.004 158.854 89.3658C159.604 89.7275 160.247 89.8525 160.783 89.7409L160.82 89.5504Z" fill="url(#paint10_linear_12_1490)"/>
<path fill-rule="evenodd" clip-rule="evenodd" d="M160.562 90.0173C160.834 88.5644 160.688 87.4852 160.122 86.7798C159.557 86.0744 158.495 85.944 156.935 86.3885C158.64 87.0428 159.618 87.8594 159.87 88.8383C160.122 89.8171 160.353 90.2102 160.562 90.0173Z" fill="url(#paint11_linear_12_1490)"/>
<path fill-rule="evenodd" clip-rule="evenodd" d="M160.762 89.6173C162.195 88.1146 163.357 87.8117 164.247 88.7086C164.216 87.6421 163.773 87.0056 162.917 86.7989C162.061 86.5923 161.234 87.5176 160.435 89.5749L160.762 89.6173Z" fill="url(#paint12_linear_12_1490)"/>
<path fill-rule="evenodd" clip-rule="evenodd" d="M160.692 89.9138C162.434 89.8274 163.398 90.5361 163.585 92.0398C164.367 91.0812 164.344 90.199 163.515 89.393C162.687 88.587 161.625 88.6849 160.329 89.6866L160.692 89.9138Z" fill="url(#paint13_linear_12_1490)"/>
<path d="M160.686 90.1914C160.464 90.132 160.333 89.9044 160.392 89.6829C160.452 89.4615 160.679 89.33 160.901 89.3894C161.122 89.4487 161.254 89.6764 161.194 89.8978C161.135 90.1193 160.907 90.2507 160.686 90.1914Z" fill="url(#paint14_linear_12_1490)"/>
<path d="M160.115 90.1816C159.894 90.1223 159.762 89.8946 159.822 89.6732C159.881 89.4517 160.109 89.3203 160.33 89.3796C160.552 89.439 160.683 89.6666 160.624 89.8881C160.564 90.1095 160.337 90.241 160.115 90.1816Z" fill="url(#paint15_linear_12_1490)"/>
<path fill-rule="evenodd" clip-rule="evenodd" d="M94.7711 67.5247C90.4291 72.2775 87.1315 78.1139 85.3503 84.7615C84.5722 87.6655 84.1221 90.5801 83.9773 93.466C87.4021 94.2763 89.5579 94.4881 90.4445 94.1014C92.1492 93.358 104.139 92.6285 126.414 91.9129C119.086 86.4364 113.862 82.649 110.744 80.5509L102.738 69.7133L98.0891 70.3989L94.7711 67.5247Z" fill="url(#paint16_linear_12_1490)"/>
<path fill-rule="evenodd" clip-rule="evenodd" d="M93.9672 68.4311C90.0217 73.0123 87.0199 78.5306 85.3503 84.7616C84.5722 87.6656 84.1221 90.5802 83.9773 93.4661C87.4021 94.2764 89.5579 94.4882 90.4445 94.1015C92.1492 93.3581 104.139 92.6286 126.414 91.913L107.345 83.1591L94.887 81.3078L97.34 75.0188L93.9672 68.4311Z" fill="url(#paint17_linear_12_1490)"/>
<path fill-rule="evenodd" clip-rule="evenodd" d="M166.706 100.193C156.942 95.7062 144.535 93.079 129.485 92.3116C144.589 102.056 155.084 110.292 160.97 117.02C162.952 113.744 164.511 110.136 165.551 106.252C166.092 104.233 166.475 102.209 166.706 100.193Z" fill="url(#paint18_linear_12_1490)"/>
<path fill-rule="evenodd" clip-rule="evenodd" d="M141.569 108.437L143.432 108.164L145.908 107.244C148.641 101.078 149.158 95.0864 147.457 89.2697L146.945 89.4779C147.565 95.4807 145.773 101.8 141.569 108.437Z" fill="url(#paint19_linear_12_1490)"/>
<path fill-rule="evenodd" clip-rule="evenodd" d="M141.569 108.437C142.811 108.255 143.432 108.164 143.432 108.164C146.939 101.38 148.11 95.1515 146.945 89.478C147.565 95.4808 145.773 101.8 141.569 108.437Z" fill="url(#paint20_linear_12_1490)"/>
<path fill-rule="evenodd" clip-rule="evenodd" d="M147.359 89.6246L147.322 89.484L147.295 89.349C145.862 88.4527 144.309 89.2158 143.963 90.2216C143.732 90.8922 143.924 91.5331 144.54 92.1444C144.67 91.0747 145.61 90.2348 147.359 89.6246Z" fill="url(#paint21_linear_12_1490)"/>
<path fill-rule="evenodd" clip-rule="evenodd" d="M147.328 89.3029C146.117 86.9182 144.503 86.2187 142.486 87.2045C143.903 87.5053 144.913 87.9437 145.514 88.5195C146.116 89.0953 146.689 89.413 147.234 89.4726L147.328 89.3029Z" fill="url(#paint22_linear_12_1490)"/>
<path fill-rule="evenodd" clip-rule="evenodd" d="M147.344 89.5704C147.912 88.2058 147.993 87.1197 147.587 86.3122C147.18 85.5047 146.168 85.1562 144.551 85.2668C146.082 86.2612 146.869 87.2633 146.912 88.2732C146.955 89.283 147.099 89.7154 147.344 89.5704Z" fill="url(#paint23_linear_12_1490)"/>
<path fill-rule="evenodd" clip-rule="evenodd" d="M147.548 89.289C149.083 87.8899 150.262 87.6688 151.088 88.6255C151.132 87.5595 150.734 86.8936 149.895 86.6278C149.055 86.3619 148.165 87.2273 147.225 89.2239L147.548 89.289Z" fill="url(#paint24_linear_12_1490)"/>
<path fill-rule="evenodd" clip-rule="evenodd" d="M147.457 89.5796C149.201 89.615 150.114 90.3892 150.195 91.9023C151.042 91.0006 151.08 90.1188 150.31 89.257C149.54 88.3952 148.473 88.4188 147.111 89.3277L147.457 89.5796Z" fill="url(#paint25_linear_12_1490)"/>
<path d="M147.46 89.8647C147.238 89.8054 147.107 89.5777 147.166 89.3563C147.225 89.1348 147.453 89.0034 147.675 89.0627C147.896 89.1221 148.027 89.3497 147.968 89.5712C147.909 89.7926 147.681 89.9241 147.46 89.8647Z" fill="url(#paint26_linear_12_1490)"/>
<path d="M146.891 89.8152C146.67 89.7558 146.538 89.5282 146.598 89.3067C146.657 89.0852 146.885 88.9538 147.106 89.0132C147.328 89.0725 147.459 89.3001 147.4 89.5216C147.34 89.7431 147.113 89.8745 146.891 89.8152Z" fill="url(#paint27_linear_12_1490)"/>
<path fill-rule="evenodd" clip-rule="evenodd" d="M164.179 110.471C163.744 109.027 162.521 107.884 160.51 107.042C155.183 104.813 158.327 98.8876 150.954 97.9343C143.581 96.981 135.185 93.4072 129.552 92.3464L140.742 107.573L162.638 113.98C163.201 112.844 163.716 111.673 164.179 110.471Z" fill="url(#paint28_linear_12_1490)"/>
<path fill-rule="evenodd" clip-rule="evenodd" d="M163.295 112.591C142.67 93.1859 116.452 84.9476 84.6409 87.8763C80.6672 109.004 93.5965 129.951 114.706 135.607C134.647 140.95 155.088 130.827 163.295 112.591Z" fill="url(#paint29_linear_12_1490)"/>
<path fill-rule="evenodd" clip-rule="evenodd" d="M132.219 136.477C128.879 133.1 127.557 127.421 128.285 120.398C129.985 104.015 125.081 96.7218 104.124 97.0491C91.3844 97.2481 84.8008 94.7216 84.3731 89.4695C81.3225 110.048 94.1273 130.093 114.706 135.607C120.61 137.189 126.558 137.415 132.219 136.477Z" fill="url(#paint30_linear_12_1490)"/>
<path fill-rule="evenodd" clip-rule="evenodd" d="M153.932 125.719C154.593 120.858 151.99 116.565 146.124 112.842C133.923 105.097 133.756 92.4187 120.844 94.5114C112.237 95.9065 106.147 96.7399 102.575 97.0115C118.568 96.802 126.744 101.102 127.102 109.912C127.552 120.951 126.298 132.361 130.906 136.673C139.571 135.521 147.632 131.647 153.932 125.719Z" fill="url(#paint31_linear_12_1490)"/>
<path fill-rule="evenodd" clip-rule="evenodd" d="M130.945 136.667C120.503 135.006 122.029 124.22 114.818 122.288C107.591 120.351 97.9693 119.784 96.7789 110.306C96.0763 104.713 91.7924 99.6678 83.927 95.1702C83.7645 113.641 96.0358 130.605 114.706 135.607C120.169 137.071 125.669 137.374 130.945 136.667L130.945 136.667Z" fill="url(#paint32_linear_12_1490)"/>
<path fill-rule="evenodd" clip-rule="evenodd" d="M160.464 77.6506C160.196 75.3645 159.169 74.1663 157.384 74.056C154.708 73.8905 154.85 76.3396 152.108 73.9875C149.365 71.6354 146.162 73.8182 146.162 73.8182C146.162 73.8182 150.929 75.0957 160.464 77.6506Z" fill="url(#paint33_linear_12_1490)"/>
<path fill-rule="evenodd" clip-rule="evenodd" d="M114.642 59.166C125.461 62.0651 130.871 63.5147 130.871 63.5147C130.871 63.5147 128.962 59.552 124.932 60.3074C120.903 61.0629 122.432 58.7371 119.708 57.381C117.892 56.477 116.203 57.072 114.642 59.166Z" fill="url(#paint34_linear_12_1490)"/>
</g>
</g>
<g filter="url(#filter1_d_12_1490)">
<rect width="128" height="160" rx="24" transform="matrix(-0.965926 -0.258819 -0.258819 0.965926 213.05 36)" fill="#141416"/>
<rect x="-0.612372" y="0.353553" width="127" height="159" rx="23.5" transform="matrix(-0.965926 -0.258819 -0.258819 0.965926 211.937 35.8536)" stroke="#353945"/>
</g>
<rect x="96" y="67" width="64" height="64" rx="32" fill="#92A5EF"/>
<path fill-rule="evenodd" clip-rule="evenodd" d="M128 109C133.523 109 138 104.523 138 99C138 93.4772 133.523 89 128 89C122.477 89 118 93.4772 118 99C118 104.523 122.477 109 128 109ZM133.707 96.7071C134.098 96.3166 134.098 95.6834 133.707 95.2929C133.317 94.9024 132.683 94.9024 132.293 95.2929L127 100.586L124.707 98.2929C124.317 97.9024 123.683 97.9024 123.293 98.2929C122.902 98.6834 122.902 99.3166 123.293 99.7071L126.293 102.707C126.683 103.098 127.317 103.098 127.707 102.707L133.707 96.7071Z" fill="#FCFCFD"/>
<rect width="12" height="12" rx="4" transform="matrix(-0.965926 -0.258819 -0.258819 0.965926 250.697 84.1055)" fill="#FABDC1"/>
<rect width="4" height="4" rx="2" transform="matrix(0.939693 -0.34202 -0.34202 -0.939693 22.7362 175.254)" fill="#9AC8FF"/>
<rect width="8" height="8" rx="2" transform="matrix(0.939693 -0.34202 -0.34202 -0.939693 32.7362 24.2539)" fill="#92A5EF"/>
<defs>
<filter id="filter0_d_12_1490" x="33.3698" y="3.65405" width="190.875" height="271.402" filterUnits="userSpaceOnUse" color-interpolation-filters="sRGB">
<feFlood flood-opacity="0" result="BackgroundImageFix"/>
<feColorMatrix in="SourceAlpha" type="matrix" values="0 0 0 0 0 0 0 0 0 0 0 0 0 0 0 0 0 0 127 0" result="hardAlpha"/>
<feMorphology radius="48" operator="erode" in="SourceAlpha" result="effect1_dropShadow_12_1490"/>
<feOffset dy="64"/>
<feGaussianBlur stdDeviation="32"/>
<feColorMatrix type="matrix" values="0 0 0 0 0.0583333 0 0 0 0 0.0583333 0 0 0 0 0.0583333 0 0 0 0.08 0"/>
<feBlend mode="multiply" in2="BackgroundImageFix" result="effect1_dropShadow_12_1490"/>
<feBlend mode="normal" in="SourceGraphic" in2="effect1_dropShadow_12_1490" result="shape"/>
</filter>
<filter id="filter1_d_12_1490" x="40" y="2.87109" width="181.05" height="235.677" filterUnits="userSpaceOnUse" color-interpolation-filters="sRGB">
<feFlood flood-opacity="0" result="BackgroundImageFix"/>
<feColorMatrix in="SourceAlpha" type="matrix" values="0 0 0 0 0 0 0 0 0 0 0 0 0 0 0 0 0 0 127 0" result="hardAlpha"/>
<feMorphology radius="24" operator="erode" in="SourceAlpha" result="effect1_dropShadow_12_1490"/>
<feOffset dy="40"/>
<feGaussianBlur stdDeviation="16"/>
<feColorMatrix type="matrix" values="0 0 0 0 0.0583333 0 0 0 0 0.0583333 0 0 0 0 0.0583333 0 0 0 0.12 0"/>
<feBlend mode="multiply" in2="BackgroundImageFix" result="effect1_dropShadow_12_1490"/>
<feBlend mode="normal" in="SourceGraphic" in2="effect1_dropShadow_12_1490" result="shape"/>
</filter>
<linearGradient id="paint0_linear_12_1490" x1="39.2167" y1="44.6925" x2="207.532" y2="53.1605" gradientUnits="userSpaceOnUse">
<stop stop-color="#23262F"/>
<stop offset="1" stop-color="#23262F" stop-opacity="0.7"/>
</linearGradient>
<linearGradient id="paint1_linear_12_1490" x1="145.605" y1="57.9273" x2="134.039" y2="132.405" gradientUnits="userSpaceOnUse">
<stop stop-color="#EEFFFD"/>
<stop offset="1" stop-color="#B7FFF6"/>
</linearGradient>
<linearGradient id="paint2_linear_12_1490" x1="137.373" y1="88.6495" x2="135.668" y2="91.9153" gradientUnits="userSpaceOnUse">
<stop stop-color="#EEFFFD"/>
<stop offset="1" stop-color="#B7FFF6"/>
</linearGradient>
<linearGradient id="paint3_linear_12_1490" x1="111.076" y1="73.2832" x2="112.435" y2="88.29" gradientUnits="userSpaceOnUse">
<stop stop-color="#30A0DE"/>
<stop offset="1" stop-color="#194383"/>
</linearGradient>
<linearGradient id="paint4_linear_12_1490" x1="130.183" y1="77.5771" x2="126.847" y2="98.8669" gradientUnits="userSpaceOnUse">
<stop stop-color="#F9BB49"/>
<stop offset="1" stop-color="#F08523"/>
</linearGradient>
<linearGradient id="paint5_linear_12_1490" x1="128.961" y1="82.4071" x2="126.737" y2="96.6003" gradientUnits="userSpaceOnUse">
<stop stop-color="#F9BB49"/>
<stop offset="1" stop-color="#F08523"/>
</linearGradient>
<linearGradient id="paint6_linear_12_1490" x1="114.934" y1="75.7677" x2="113.806" y2="90.4945" gradientUnits="userSpaceOnUse">
<stop stop-color="#30A0DE"/>
<stop offset="1" stop-color="#194383"/>
</linearGradient>
<linearGradient id="paint7_linear_12_1490" x1="159.113" y1="103.408" x2="164.171" y2="89.3717" gradientUnits="userSpaceOnUse">
<stop stop-color="#DB593D"/>
<stop offset="1" stop-color="#F88461"/>
</linearGradient>
<linearGradient id="paint8_linear_12_1490" x1="159.57" y1="98.3475" x2="160.884" y2="88.8751" gradientUnits="userSpaceOnUse">
<stop stop-color="#CD4C30"/>
<stop offset="1" stop-color="#F88461" stop-opacity="0"/>
</linearGradient>
<linearGradient id="paint9_linear_12_1490" x1="158.822" y1="93.458" x2="158.863" y2="90.0507" gradientUnits="userSpaceOnUse">
<stop stop-color="#13DBBF"/>
<stop offset="1" stop-color="#08B58B"/>
</linearGradient>
<linearGradient id="paint10_linear_12_1490" x1="159.948" y1="89.4648" x2="159.412" y2="88.4615" gradientUnits="userSpaceOnUse">
<stop stop-color="#13DBBF"/>
<stop offset="1" stop-color="#08B58B"/>
</linearGradient>
<linearGradient id="paint11_linear_12_1490" x1="156.603" y1="86.0859" x2="159.53" y2="89.0587" gradientUnits="userSpaceOnUse">
<stop stop-color="#13DBBF"/>
<stop offset="1" stop-color="#08B58B"/>
</linearGradient>
<linearGradient id="paint12_linear_12_1490" x1="163.127" y1="90.6358" x2="162.989" y2="87.6123" gradientUnits="userSpaceOnUse">
<stop stop-color="#13DBBF"/>
<stop offset="1" stop-color="#08B58B"/>
</linearGradient>
<linearGradient id="paint13_linear_12_1490" x1="159.681" y1="90.4579" x2="163.144" y2="88.6159" gradientUnits="userSpaceOnUse">
<stop stop-color="#13DBBF"/>
<stop offset="1" stop-color="#08B58B"/>
</linearGradient>
<linearGradient id="paint14_linear_12_1490" x1="161.286" y1="89.7837" x2="160.521" y2="89.9416" gradientUnits="userSpaceOnUse">
<stop stop-color="#E3F35C"/>
<stop offset="1" stop-color="#C3E22F"/>
</linearGradient>
<linearGradient id="paint15_linear_12_1490" x1="160.715" y1="89.774" x2="159.95" y2="89.9318" gradientUnits="userSpaceOnUse">
<stop stop-color="#E3F35C"/>
<stop offset="1" stop-color="#C3E22F"/>
</linearGradient>
<linearGradient id="paint16_linear_12_1490" x1="104.679" y1="79.3837" x2="106.812" y2="95.702" gradientUnits="userSpaceOnUse">
<stop stop-color="#30A0DE"/>
<stop offset="1" stop-color="#194383"/>
</linearGradient>
<linearGradient id="paint17_linear_12_1490" x1="104.578" y1="83.1581" x2="106.51" y2="95.6544" gradientUnits="userSpaceOnUse">
<stop stop-color="#30A0DE"/>
<stop offset="1" stop-color="#194383"/>
</linearGradient>
<linearGradient id="paint18_linear_12_1490" x1="129.609" y1="96.6245" x2="147.55" y2="112.445" gradientUnits="userSpaceOnUse">
<stop stop-color="#68C179"/>
<stop offset="1" stop-color="#25A062"/>
</linearGradient>
<linearGradient id="paint19_linear_12_1490" x1="145.278" y1="102.905" x2="150.182" y2="88.8049" gradientUnits="userSpaceOnUse">
<stop stop-color="#DB593D"/>
<stop offset="1" stop-color="#F88461"/>
</linearGradient>
<linearGradient id="paint20_linear_12_1490" x1="145.797" y1="97.8438" x2="147.314" y2="88.367" gradientUnits="userSpaceOnUse">
<stop stop-color="#CD4C30"/>
<stop offset="1" stop-color="#F88461" stop-opacity="0"/>
</linearGradient>
<linearGradient id="paint21_linear_12_1490" x1="145.68" y1="92.9895" x2="145.672" y2="89.6304" gradientUnits="userSpaceOnUse">
<stop stop-color="#13DBBF"/>
<stop offset="1" stop-color="#08B58B"/>
</linearGradient>
<linearGradient id="paint22_linear_12_1490" x1="146.629" y1="88.5121" x2="146.156" y2="87.4805" gradientUnits="userSpaceOnUse">
<stop stop-color="#13DBBF"/>
<stop offset="1" stop-color="#08B58B"/>
</linearGradient>
<linearGradient id="paint23_linear_12_1490" x1="144.361" y1="84.6252" x2="147.043" y2="88.073" gradientUnits="userSpaceOnUse">
<stop stop-color="#13DBBF"/>
<stop offset="1" stop-color="#08B58B"/>
</linearGradient>
<linearGradient id="paint24_linear_12_1490" x1="150.082" y1="90.0501" x2="149.909" y2="87.4693" gradientUnits="userSpaceOnUse">
<stop stop-color="#13DBBF"/>
<stop offset="1" stop-color="#08B58B"/>
</linearGradient>
<linearGradient id="paint25_linear_12_1490" x1="146.382" y1="90.4183" x2="149.902" y2="88.4355" gradientUnits="userSpaceOnUse">
<stop stop-color="#13DBBF"/>
<stop offset="1" stop-color="#08B58B"/>
</linearGradient>
<linearGradient id="paint26_linear_12_1490" x1="148.06" y1="89.4571" x2="147.294" y2="89.6149" gradientUnits="userSpaceOnUse">
<stop stop-color="#E3F35C"/>
<stop offset="1" stop-color="#C3E22F"/>
</linearGradient>
<linearGradient id="paint27_linear_12_1490" x1="147.491" y1="89.4075" x2="146.726" y2="89.5654" gradientUnits="userSpaceOnUse">
<stop stop-color="#E3F35C"/>
<stop offset="1" stop-color="#C3E22F"/>
</linearGradient>
<linearGradient id="paint28_linear_12_1490" x1="131.227" y1="98.4069" x2="147.119" y2="107.306" gradientUnits="userSpaceOnUse">
<stop stop-color="#68C179"/>
<stop offset="1" stop-color="#25A062"/>
</linearGradient>
<linearGradient id="paint29_linear_12_1490" x1="119.821" y1="102.494" x2="124.275" y2="128.797" gradientUnits="userSpaceOnUse">
<stop stop-color="#77EBFF"/>
<stop offset="1" stop-color="#4D86DE"/>
</linearGradient>
<linearGradient id="paint30_linear_12_1490" x1="82.6585" y1="100.499" x2="118.524" y2="152.953" gradientUnits="userSpaceOnUse">
<stop stop-color="#91F6FF"/>
<stop offset="1" stop-color="#4D86DE"/>
</linearGradient>
<linearGradient id="paint31_linear_12_1490" x1="124.292" y1="98.9419" x2="129.999" y2="138.636" gradientUnits="userSpaceOnUse">
<stop stop-color="#77EBFF"/>
<stop offset="1" stop-color="#4D86DE"/>
</linearGradient>
<linearGradient id="paint32_linear_12_1490" x1="99.3784" y1="111.359" x2="122.52" y2="150.485" gradientUnits="userSpaceOnUse">
<stop stop-color="#91F6FF"/>
<stop offset="1" stop-color="#4D86DE"/>
</linearGradient>
<linearGradient id="paint33_linear_12_1490" x1="151.877" y1="73.8765" x2="160.088" y2="79.3662" gradientUnits="userSpaceOnUse">
<stop stop-color="#C1FFF7"/>
<stop offset="1" stop-color="#93E9DE"/>
</linearGradient>
<linearGradient id="paint34_linear_12_1490" x1="121.127" y1="59.2321" x2="130.445" y2="65.4615" gradientUnits="userSpaceOnUse">
<stop stop-color="#C1FFF7"/>
<stop offset="1" stop-color="#93E9DE"/>
</linearGradient>
<clipPath id="clip0_12_1490">
<rect width="120" height="166" rx="24" transform="matrix(-0.965926 -0.258819 -0.258819 0.965926 208.245 34.7124)" fill="white"/>
</clipPath>
</defs>
</svg>
