<svg width="160" height="160" viewBox="0 0 160 160" fill="none" xmlns="http://www.w3.org/2000/svg">
<path d="M80 140C113.137 140 140 113.137 140 79.9997C140 46.8627 113.137 19.9998 80 19.9998C46.8629 19.9998 20 46.8627 20 79.9997C20 113.137 46.8629 140 80 140Z" fill="url(#paint0_linear_12_568)"/>
<path fill-rule="evenodd" clip-rule="evenodd" d="M46.7165 30.0702C49.2467 28.3801 51.9126 26.8773 54.6944 25.5815H86.7683L46.7165 30.0702Z" fill="url(#paint1_linear_12_568)"/>
<path fill-rule="evenodd" clip-rule="evenodd" d="M96.8296 39.884C96.3668 39.884 88.6404 40.2033 73.6503 40.8417L109.356 44.1262C101.468 41.2981 97.2923 39.884 96.8296 39.884Z" fill="url(#paint2_linear_12_568)"/>
<path fill-rule="evenodd" clip-rule="evenodd" d="M74.0534 60.0411L96.04 25.3708L101.938 28.5277H108.45L136.294 63.2518L100.475 74.037L72.0522 65.7831L74.0534 60.0411Z" fill="url(#paint3_linear_12_568)"/>
<path fill-rule="evenodd" clip-rule="evenodd" d="M87.6252 68.4919L100.475 58.5063L97.382 41.7492L105.888 34.7458L101.938 28.5278H108.45L136.294 63.2519L100.475 74.0371L87.6252 68.4919Z" fill="url(#paint4_linear_12_568)"/>
<path fill-rule="evenodd" clip-rule="evenodd" d="M20.0014 79.5829C37.9728 62.7152 50.2285 52.4583 56.7688 48.8123L69.5812 49.3123L94.9307 72.8089L62.567 92.5981H21.3248C20.4568 88.5358 20 84.3213 20 80C20 79.8608 20.0005 79.7218 20.0014 79.5829Z" fill="url(#paint5_linear_12_568)"/>
<path fill-rule="evenodd" clip-rule="evenodd" d="M21.3248 92.598C21.1396 91.7313 20.9731 90.8576 20.8258 89.9775L28.5691 87.796L56.6264 58.9518L69.5812 49.3123L94.9307 72.8089L62.567 92.598H21.3248Z" fill="url(#paint6_linear_12_568)"/>
<path fill-rule="evenodd" clip-rule="evenodd" d="M62.6907 71.2625H64.4296L64.6704 81.5758H62.45L62.6907 71.2625Z" fill="url(#paint7_linear_12_568)"/>
<path fill-rule="evenodd" clip-rule="evenodd" d="M57.3725 73.2914L63.3551 72.3628L69.9767 73.2914L68.6449 66.5318C65.1183 65.4878 63.3551 64.9658 63.3551 64.9658C63.3551 64.9658 61.7158 65.6413 58.4373 66.9922L57.3725 73.2914Z" fill="url(#paint8_linear_12_568)"/>
<path fill-rule="evenodd" clip-rule="evenodd" d="M69.2119 69.4101L68.9934 68.301L66.0724 68.7383L69.2119 69.4101Z" fill="url(#paint9_linear_12_568)"/>
<path fill-rule="evenodd" clip-rule="evenodd" d="M57.3826 67.4713L63.4113 66.178L69.8974 67.4713L68.9491 61.612L63.4113 59.2676L58.3059 61.0875L57.6233 65.8071H58.3059L57.535 66.4176L57.3826 67.4713Z" fill="url(#paint10_linear_12_568)"/>
<path fill-rule="evenodd" clip-rule="evenodd" d="M57.0302 61.7841L63.3541 60.4957L69.914 61.7841L69.3173 59.2489L66.9302 58.6898H69.1857L63.4721 34.4143L59.9737 49.2778H61.9788L59.6476 50.6633L57.0302 61.7841Z" fill="url(#paint11_linear_12_568)"/>
<path fill-rule="evenodd" clip-rule="evenodd" d="M23.8 74.5999H25.6V85.5999H23.8V74.5999Z" fill="url(#paint12_linear_12_568)"/>
<path fill-rule="evenodd" clip-rule="evenodd" d="M26.4287 52.9504L31.4 77.7998L24.4755 76.4292L20.0581 77.3362C20.4401 68.5915 22.6939 60.3327 26.4287 52.9504Z" fill="url(#paint13_linear_12_568)"/>
<path fill-rule="evenodd" clip-rule="evenodd" d="M47.8 70.5999H49.6V81.5999H47.8V70.5999Z" fill="url(#paint14_linear_12_568)"/>
<path fill-rule="evenodd" clip-rule="evenodd" d="M41.8 73.7998L48.4755 72.4292L55.4 73.7998L48.438 38.9998L41.8 73.7998Z" fill="url(#paint15_linear_12_568)"/>
<path fill-rule="evenodd" clip-rule="evenodd" d="M20.3594 86.6053C26.8835 81.7809 36.5076 80.2035 49.2316 81.873C75.2542 85.2875 81.5127 60.3489 109.54 60.3489C119.932 60.3489 127.603 57.2423 132.555 51.0291C137.3 59.6178 140 69.4935 140 80C140 113.137 113.137 140 80 140C49.0953 140 23.6478 116.634 20.3594 86.6053Z" fill="url(#paint16_linear_12_568)"/>
<path fill-rule="evenodd" clip-rule="evenodd" d="M21.3541 92.7342C25.184 90.5715 30.4569 91.4169 33.5556 92.9913C37.6133 95.053 42.1169 94.8371 52.1504 91.2973C58.8395 88.9375 65.4498 91.6227 71.9816 99.3531C64.8459 98.3521 60.0273 99.595 57.5257 103.082C53.7734 108.312 48.7052 109.187 38.5141 107.866C32.8735 107.135 30.0354 108.992 28.5525 110.891C25.2227 105.357 22.7606 99.242 21.3541 92.7342H21.3541Z" fill="url(#paint17_linear_12_568)"/>
<path fill-rule="evenodd" clip-rule="evenodd" d="M130.119 71.8413C123.003 69.0366 117.181 69.0366 112.651 71.8413C108.121 74.6461 102.633 75.503 96.1851 74.412L97.267 83.1008L132.648 82.2583L130.119 71.8413Z" fill="url(#paint18_linear_12_568)"/>
<path fill-rule="evenodd" clip-rule="evenodd" d="M126.8 117.55C125.967 118.587 125.099 119.596 124.2 120.576V110H126.8V117.55Z" fill="url(#paint19_linear_12_568)"/>
<path fill-rule="evenodd" clip-rule="evenodd" d="M133.539 107.114C132.438 109.284 131.208 111.378 129.861 113.385L125.224 112.47L115.8 114.4L125.171 65.3999L133.539 107.114Z" fill="url(#paint20_linear_12_568)"/>
<path fill-rule="evenodd" clip-rule="evenodd" d="M82.8 139.936C81.9379 139.975 81.0711 139.997 80.2 139.999V132H82.8V139.936Z" fill="url(#paint21_linear_12_568)"/>
<path fill-rule="evenodd" clip-rule="evenodd" d="M71.8 136.4L81.2242 134.47L91 136.4L81.1713 87.3999L71.8 136.4Z" fill="url(#paint22_linear_12_568)"/>
<path fill-rule="evenodd" clip-rule="evenodd" d="M50.6 132.315C50.0615 132.012 49.5281 131.701 49 131.381V128.6H50.6V132.315Z" fill="url(#paint23_linear_12_568)"/>
<path fill-rule="evenodd" clip-rule="evenodd" d="M44.219 128.168L49.6523 99.7998L56 131.4L49.6865 130.155L47.6868 130.564C46.5018 129.805 45.3452 129.006 44.219 128.168H44.219Z" fill="url(#paint24_linear_12_568)"/>
<path fill-rule="evenodd" clip-rule="evenodd" d="M136.945 98.9541C135.941 101.971 134.704 104.882 133.255 107.665V94.3853H136.945V98.9541V98.9541Z" fill="url(#paint25_linear_12_568)"/>
<path fill-rule="evenodd" clip-rule="evenodd" d="M139.762 85.3842C139.418 89.2486 138.708 93.0077 137.666 96.6264L134.759 96.2178L124.819 97.7642L126.588 87.2743L134.759 83.8999L139.762 85.3842Z" fill="url(#paint26_linear_12_568)"/>
<path fill-rule="evenodd" clip-rule="evenodd" d="M139.903 76.5536C139.967 77.6941 140 78.8431 140 79.9998C140 82.3229 139.868 84.6151 139.611 86.8694L134.853 85.9184L124.836 88.0722L125.089 86.3176L126.37 85.3008H125.236L126.37 77.4415L134.853 74.4109L139.903 76.5536Z" fill="url(#paint27_linear_12_568)"/>
<path fill-rule="evenodd" clip-rule="evenodd" d="M131.252 48.7864C136.392 57.2082 139.515 66.9959 139.948 77.4778L134.758 76.456L124.25 78.6017L128.599 60.0827L132.472 57.7754H129.141L131.252 48.7864Z" fill="url(#paint28_linear_12_568)"/>
<path fill-rule="evenodd" clip-rule="evenodd" d="M115.942 128.047C115.171 128.625 114.385 129.185 113.585 129.726V120.805H115.942V128.047Z" fill="url(#paint29_linear_12_568)"/>
<path fill-rule="evenodd" clip-rule="evenodd" d="M108.195 122.963L114.546 121.976L121.575 122.963L120.161 115.774C116.418 114.664 114.546 114.109 114.546 114.109C114.546 114.109 112.806 114.827 109.326 116.264L108.195 122.963Z" fill="url(#paint30_linear_12_568)"/>
<path fill-rule="evenodd" clip-rule="evenodd" d="M120.763 118.835L120.531 117.656L117.431 118.121L120.763 118.835Z" fill="url(#paint31_linear_12_568)"/>
<path fill-rule="evenodd" clip-rule="evenodd" d="M108.206 116.773L114.606 115.398L121.491 116.773L120.484 110.541L114.606 108.048L109.186 109.984L108.462 115.003H109.186L108.368 115.653L108.206 116.773Z" fill="url(#paint32_linear_12_568)"/>
<path fill-rule="evenodd" clip-rule="evenodd" d="M107.832 110.725L114.545 109.354L121.509 110.725L120.875 108.028L118.341 107.434H120.736L114.67 81.6152L110.957 97.4234H113.085L110.611 98.897L107.832 110.725Z" fill="url(#paint33_linear_12_568)"/>
<path fill-rule="evenodd" clip-rule="evenodd" d="M38.3438 123.183L40.025 122.58L44.7108 124.576L45.4293 129.045C42.9185 127.272 40.5498 125.311 38.3438 123.183Z" fill="url(#paint34_linear_12_568)"/>
<path fill-rule="evenodd" clip-rule="evenodd" d="M35.6369 120.397L36.8403 115.251L38.8128 114.071H37.1162L40.0764 101.412L44.911 122.087H43.0025L45.0223 122.564L45.5272 124.723L39.9766 123.625L39.0169 123.822C37.8453 122.726 36.7177 121.584 35.6369 120.397Z" fill="url(#paint35_linear_12_568)"/>
<path fill-rule="evenodd" clip-rule="evenodd" d="M60.6 136.794C59.86 136.541 59.1266 136.275 58.4 135.994V130H60.6V136.794Z" fill="url(#paint36_linear_12_568)"/>
<path fill-rule="evenodd" clip-rule="evenodd" d="M53.6 131.8L59.3907 130.908L65.8 131.8L64.5109 125.305C61.0974 124.301 59.3907 123.8 59.3907 123.8C59.3907 123.8 57.804 124.449 54.6306 125.747L53.6 131.8Z" fill="url(#paint37_linear_12_568)"/>
<path fill-rule="evenodd" clip-rule="evenodd" d="M65 128L64.7912 127L62 127.394L65 128Z" fill="url(#paint38_linear_12_568)"/>
<path fill-rule="evenodd" clip-rule="evenodd" d="M53.6 126.4L59.4771 125.139L65.8 126.4L64.8756 120.686L59.4771 118.4L54.5001 120.175L53.8346 124.777H54.5001L53.7486 125.372L53.6 126.4Z" fill="url(#paint39_linear_12_568)"/>
<path fill-rule="evenodd" clip-rule="evenodd" d="M53.2 120.8L59.2865 119.548L65.6 120.8L65.0257 118.336L62.7283 117.793H64.8991L59.4 94.2L56.033 108.645H57.9628L55.7192 109.992L53.2 120.8Z" fill="url(#paint40_linear_12_568)"/>
<path fill-rule="evenodd" clip-rule="evenodd" d="M98.3446 137.144C97.1312 137.533 95.901 137.884 94.6554 138.197V126.785H98.3446V137.144Z" fill="url(#paint41_linear_12_568)"/>
<path fill-rule="evenodd" clip-rule="evenodd" d="M86.219 130.164L96.1592 128.618L107.161 130.164L104.948 118.908C99.0889 117.169 96.1592 116.3 96.1592 116.3C96.1592 116.3 93.4355 117.425 87.9881 119.674L86.219 130.164Z" fill="url(#paint42_linear_12_568)"/>
<path fill-rule="evenodd" clip-rule="evenodd" d="M105.891 123.701L105.528 121.854L100.674 122.582L105.891 123.701Z" fill="url(#paint43_linear_12_568)"/>
<path fill-rule="evenodd" clip-rule="evenodd" d="M86.2356 120.472L96.2527 118.319L107.029 120.472L105.454 110.715L96.2527 106.811L87.7697 109.842L86.6356 117.701H87.7697L86.4888 118.718L86.2356 120.472Z" fill="url(#paint44_linear_12_568)"/>
<path fill-rule="evenodd" clip-rule="evenodd" d="M85.6501 111.002L96.1576 108.856L107.057 111.002L106.066 106.78L102.099 105.849H105.847L96.3536 65.4241L90.5409 90.1755H93.8725L89.9991 92.4828L85.6501 111.002Z" fill="url(#paint45_linear_12_568)"/>
<path fill-rule="evenodd" clip-rule="evenodd" d="M34.6554 68.1853H37.5446L37.8514 81.2774C37.0491 81.3192 36.4045 81.3586 35.9177 81.3956C35.4308 81.4326 34.9122 81.4816 34.3618 81.5427L34.6554 68.1853Z" fill="url(#paint46_linear_12_568)"/>
<path fill-rule="evenodd" clip-rule="evenodd" d="M25.819 71.5642L35.7592 70.0179L46.7612 71.5642L44.5484 60.3078C38.6889 58.5692 35.7592 57.7 35.7592 57.7C35.7592 57.7 33.0355 58.8247 27.5881 61.0743L25.819 71.5642Z" fill="url(#paint47_linear_12_568)"/>
<path fill-rule="evenodd" clip-rule="evenodd" d="M45.4906 65.1006L45.1276 63.2537L40.2742 63.9818L45.4906 65.1006Z" fill="url(#paint48_linear_12_568)"/>
<path fill-rule="evenodd" clip-rule="evenodd" d="M25.8356 61.8723L35.8527 59.7185L46.6295 61.8723L45.0539 52.1149L35.8527 48.2109L27.3697 51.2416L26.2356 59.1009H27.3697L26.0888 60.1176L25.8356 61.8723Z" fill="url(#paint49_linear_12_568)"/>
<path fill-rule="evenodd" clip-rule="evenodd" d="M25.2501 52.4017L35.7576 50.2561L46.6571 52.4017L45.6656 48.1798L41.6994 47.2489H45.447L35.9536 6.82397L30.141 31.5754H33.4725L29.5991 33.8827L25.2501 52.4017Z" fill="url(#paint50_linear_12_568)"/>
<path d="M74.7 80.3998C75.0866 80.3998 75.4 80.0864 75.4 79.6998C75.4 79.3132 75.0866 78.9998 74.7 78.9998C74.3134 78.9998 74 79.3132 74 79.6998C74 80.0864 74.3134 80.3998 74.7 80.3998Z" fill="url(#paint51_linear_12_568)"/>
<path opacity="0.3" d="M32.7 28.3998C33.0866 28.3998 33.4 28.0864 33.4 27.6998C33.4 27.3132 33.0866 26.9998 32.7 26.9998C32.3134 26.9998 32 27.3132 32 27.6998C32 28.0864 32.3134 28.3998 32.7 28.3998Z" fill="url(#paint52_linear_12_568)"/>
<path opacity="0.56" d="M86.7 58.3998C87.0866 58.3998 87.4 58.0864 87.4 57.6998C87.4 57.3132 87.0866 56.9998 86.7 56.9998C86.3134 56.9998 86 57.3132 86 57.6998C86 58.0864 86.3134 58.3998 86.7 58.3998Z" fill="url(#paint53_linear_12_568)"/>
<path opacity="0.56" d="M127.7 72.9999C128.087 72.9999 128.4 72.6865 128.4 72.2999C128.4 71.9133 128.087 71.5999 127.7 71.5999C127.313 71.5999 127 71.9133 127 72.2999C127 72.6865 127.313 72.9999 127.7 72.9999Z" fill="url(#paint54_linear_12_568)"/>
<path d="M72.7 44.3998C73.0866 44.3998 73.4 44.0864 73.4 43.6998C73.4 43.3132 73.0866 42.9998 72.7 42.9998C72.3134 42.9998 72 43.3132 72 43.6998C72 44.0864 72.3134 44.3998 72.7 44.3998Z" fill="url(#paint55_linear_12_568)"/>
<path opacity="0.8" d="M51.1 52.9999C51.4866 52.9999 51.8 52.6865 51.8 52.2999C51.8 51.9133 51.4866 51.5999 51.1 51.5999C50.7134 51.5999 50.4 51.9133 50.4 52.2999C50.4 52.6865 50.7134 52.9999 51.1 52.9999Z" fill="url(#paint56_linear_12_568)"/>
<path opacity="0.8" d="M112.6 92.5999C113.152 92.5999 113.6 92.1521 113.6 91.5999C113.6 91.0476 113.152 90.5999 112.6 90.5999C112.048 90.5999 111.6 91.0476 111.6 91.5999C111.6 92.1521 112.048 92.5999 112.6 92.5999Z" fill="url(#paint57_linear_12_568)"/>
<path opacity="0.8" d="M100.3 119.6C100.576 119.6 100.8 119.376 100.8 119.1C100.8 118.824 100.576 118.6 100.3 118.6C100.024 118.6 99.8 118.824 99.8 119.1C99.8 119.376 100.024 119.6 100.3 119.6Z" fill="url(#paint58_linear_12_568)"/>
<path opacity="0.3" d="M38.7 107.8C38.9761 107.8 39.2 107.576 39.2 107.3C39.2 107.024 38.9761 106.8 38.7 106.8C38.4239 106.8 38.2 107.024 38.2 107.3C38.2 107.576 38.4239 107.8 38.7 107.8Z" fill="url(#paint59_linear_12_568)"/>
<path opacity="0.6" d="M77 110.8C77.5523 110.8 78 110.352 78 109.8C78 109.248 77.5523 108.8 77 108.8C76.4477 108.8 76 109.248 76 109.8C76 110.352 76.4477 110.8 77 110.8Z" fill="url(#paint60_linear_12_568)"/>
<path d="M48.8 92.5999C49.3523 92.5999 49.8 92.1521 49.8 91.5999C49.8 91.0476 49.3523 90.5999 48.8 90.5999C48.2477 90.5999 47.8 91.0476 47.8 91.5999C47.8 92.1521 48.2477 92.5999 48.8 92.5999Z" fill="url(#paint61_linear_12_568)"/>
<path d="M54.8 116.6C55.1314 116.6 55.4 116.331 55.4 116C55.4 115.669 55.1314 115.4 54.8 115.4C54.4686 115.4 54.2 115.669 54.2 116C54.2 116.331 54.4686 116.6 54.8 116.6Z" fill="url(#paint62_linear_12_568)"/>
<defs>
<linearGradient id="paint0_linear_12_568" x1="74.1709" y1="33.6986" x2="38.2026" y2="79.9997" gradientUnits="userSpaceOnUse">
<stop stop-color="#C1FFF7"/>
<stop offset="1" stop-color="#93E9DE"/>
</linearGradient>
<linearGradient id="paint1_linear_12_568" x1="81.7219" y1="27.7726" x2="53.3932" y2="31.9265" gradientUnits="userSpaceOnUse">
<stop stop-color="#C1FFF7"/>
<stop offset="1" stop-color="#93E9DE"/>
</linearGradient>
<linearGradient id="paint2_linear_12_568" x1="89.7686" y1="41.982" x2="79.3076" y2="43.5819" gradientUnits="userSpaceOnUse">
<stop stop-color="#C1FFF7"/>
<stop offset="1" stop-color="#93E9DE"/>
</linearGradient>
<linearGradient id="paint3_linear_12_568" x1="106.036" y1="38.1557" x2="100.756" y2="67.935" gradientUnits="userSpaceOnUse">
<stop stop-color="#77EBFF"/>
<stop offset="1" stop-color="#4D86DE"/>
</linearGradient>
<linearGradient id="paint4_linear_12_568" x1="113.409" y1="28.3811" x2="108.176" y2="73.9199" gradientUnits="userSpaceOnUse">
<stop stop-color="#77EBFF"/>
<stop offset="1" stop-color="#4D86DE"/>
</linearGradient>
<linearGradient id="paint5_linear_12_568" x1="59.6969" y1="62.1002" x2="56.358" y2="80.2564" gradientUnits="userSpaceOnUse">
<stop stop-color="#77EBFF"/>
<stop offset="1" stop-color="#4D86DE"/>
</linearGradient>
<linearGradient id="paint6_linear_12_568" x1="60.4093" y1="66.0904" x2="56.8495" y2="80.7487" gradientUnits="userSpaceOnUse">
<stop stop-color="#77EBFF"/>
<stop offset="1" stop-color="#4D86DE"/>
</linearGradient>
<linearGradient id="paint7_linear_12_568" x1="63.5602" y1="59.643" x2="63.5602" y2="75.5032" gradientUnits="userSpaceOnUse">
<stop stop-color="#77EBFF"/>
<stop offset="1" stop-color="#4D86DE"/>
</linearGradient>
<linearGradient id="paint8_linear_12_568" x1="64.1782" y1="62.5927" x2="63.7823" y2="70.1171" gradientUnits="userSpaceOnUse">
<stop stop-color="#77EBFF"/>
<stop offset="1" stop-color="#4D86DE"/>
</linearGradient>
<linearGradient id="paint9_linear_12_568" x1="71.0849" y1="68.07" x2="69.9475" y2="70.1853" gradientUnits="userSpaceOnUse">
<stop stop-color="#77EBFF"/>
<stop offset="1" stop-color="#4D86DE"/>
</linearGradient>
<linearGradient id="paint10_linear_12_568" x1="64.569" y1="55.6702" x2="63.7456" y2="65.0583" gradientUnits="userSpaceOnUse">
<stop stop-color="#77EBFF"/>
<stop offset="1" stop-color="#4D86DE"/>
</linearGradient>
<linearGradient id="paint11_linear_12_568" x1="63.5571" y1="32.3471" x2="61.9787" y2="63.5492" gradientUnits="userSpaceOnUse">
<stop stop-color="#77EBFF"/>
<stop offset="1" stop-color="#4D86DE"/>
</linearGradient>
<linearGradient id="paint12_linear_12_568" x1="24.7" y1="62.2068" x2="24.7" y2="79.123" gradientUnits="userSpaceOnUse">
<stop stop-color="#77EBFF"/>
<stop offset="1" stop-color="#4D86DE"/>
</linearGradient>
<linearGradient id="paint13_linear_12_568" x1="25.7994" y1="51.0736" x2="24.4098" y2="79.4048" gradientUnits="userSpaceOnUse">
<stop stop-color="#77EBFF"/>
<stop offset="1" stop-color="#4D86DE"/>
</linearGradient>
<linearGradient id="paint14_linear_12_568" x1="48.7" y1="58.2068" x2="48.7" y2="75.123" gradientUnits="userSpaceOnUse">
<stop stop-color="#77EBFF"/>
<stop offset="1" stop-color="#4D86DE"/>
</linearGradient>
<linearGradient id="paint15_linear_12_568" x1="48.6619" y1="36.3713" x2="46.995" y2="76.0637" gradientUnits="userSpaceOnUse">
<stop stop-color="#77EBFF"/>
<stop offset="1" stop-color="#4D86DE"/>
</linearGradient>
<linearGradient id="paint16_linear_12_568" x1="123.501" y1="76.257" x2="91.6046" y2="160.253" gradientUnits="userSpaceOnUse">
<stop stop-color="#91F6FF"/>
<stop offset="1" stop-color="#4D86DE"/>
</linearGradient>
<linearGradient id="paint17_linear_12_568" x1="43.9373" y1="100.68" x2="43.9373" y2="87.2905" gradientUnits="userSpaceOnUse">
<stop stop-color="#78CEF3" stop-opacity="0"/>
<stop offset="1" stop-color="#4D86DE"/>
</linearGradient>
<linearGradient id="paint18_linear_12_568" x1="112.475" y1="76.8311" x2="112.135" y2="74.4001" gradientUnits="userSpaceOnUse">
<stop stop-color="#91F6FF" stop-opacity="0"/>
<stop offset="1" stop-color="#4D86DE"/>
</linearGradient>
<linearGradient id="paint19_linear_12_568" x1="125.5" y1="98.0846" x2="125.5" y2="114.348" gradientUnits="userSpaceOnUse">
<stop stop-color="#77EBFF"/>
<stop offset="1" stop-color="#4D86DE"/>
</linearGradient>
<linearGradient id="paint20_linear_12_568" x1="124.738" y1="61.6989" x2="122.564" y2="117.598" gradientUnits="userSpaceOnUse">
<stop stop-color="#77EBFF"/>
<stop offset="1" stop-color="#4D86DE"/>
</linearGradient>
<linearGradient id="paint21_linear_12_568" x1="81.5" y1="122.987" x2="81.5" y2="135.289" gradientUnits="userSpaceOnUse">
<stop stop-color="#77EBFF"/>
<stop offset="1" stop-color="#4D86DE"/>
</linearGradient>
<linearGradient id="paint22_linear_12_568" x1="82.2982" y1="83.9346" x2="74.7819" y2="138.802" gradientUnits="userSpaceOnUse">
<stop stop-color="#7BD3F4"/>
<stop offset="1" stop-color="#4D86DE"/>
</linearGradient>
<linearGradient id="paint23_linear_12_568" x1="49.8" y1="124.414" x2="49.8" y2="130.128" gradientUnits="userSpaceOnUse">
<stop stop-color="#77EBFF"/>
<stop offset="1" stop-color="#4D86DE"/>
</linearGradient>
<linearGradient id="paint24_linear_12_568" x1="50.6084" y1="97.565" x2="45.9908" y2="132.992" gradientUnits="userSpaceOnUse">
<stop stop-color="#7BD3F4"/>
<stop offset="1" stop-color="#4D86DE"/>
</linearGradient>
<linearGradient id="paint25_linear_12_568" x1="135.1" y1="79.424" x2="135.1" y2="99.8457" gradientUnits="userSpaceOnUse">
<stop stop-color="#77EBFF"/>
<stop offset="1" stop-color="#4D86DE"/>
</linearGradient>
<linearGradient id="paint26_linear_12_568" x1="132.887" y1="69.3578" x2="131.964" y2="93.9975" gradientUnits="userSpaceOnUse">
<stop stop-color="#77EBFF"/>
<stop offset="1" stop-color="#4D86DE"/>
</linearGradient>
<linearGradient id="paint27_linear_12_568" x1="133.544" y1="57.0264" x2="131.676" y2="86.2845" gradientUnits="userSpaceOnUse">
<stop stop-color="#77EBFF"/>
<stop offset="1" stop-color="#4D86DE"/>
</linearGradient>
<linearGradient id="paint28_linear_12_568" x1="132.229" y1="46.5344" x2="130.306" y2="80.5135" gradientUnits="userSpaceOnUse">
<stop stop-color="#77EBFF"/>
<stop offset="1" stop-color="#4D86DE"/>
</linearGradient>
<linearGradient id="paint29_linear_12_568" x1="114.764" y1="110.754" x2="114.764" y2="124.474" gradientUnits="userSpaceOnUse">
<stop stop-color="#77EBFF"/>
<stop offset="1" stop-color="#4D86DE"/>
</linearGradient>
<linearGradient id="paint30_linear_12_568" x1="114.885" y1="109.105" x2="114.699" y2="119.567" gradientUnits="userSpaceOnUse">
<stop stop-color="#77EBFF"/>
<stop offset="1" stop-color="#4D86DE"/>
</linearGradient>
<linearGradient id="paint31_linear_12_568" x1="122.752" y1="117.407" x2="121.545" y2="119.655" gradientUnits="userSpaceOnUse">
<stop stop-color="#77EBFF"/>
<stop offset="1" stop-color="#4D86DE"/>
</linearGradient>
<linearGradient id="paint32_linear_12_568" x1="115.818" y1="99.6765" x2="114.952" y2="114.181" gradientUnits="userSpaceOnUse">
<stop stop-color="#77EBFF"/>
<stop offset="1" stop-color="#4D86DE"/>
</linearGradient>
<linearGradient id="paint33_linear_12_568" x1="114.76" y1="79.4166" x2="113.085" y2="112.602" gradientUnits="userSpaceOnUse">
<stop stop-color="#77EBFF"/>
<stop offset="1" stop-color="#4D86DE"/>
</linearGradient>
<linearGradient id="paint34_linear_12_568" x1="42.4034" y1="107.595" x2="41.5163" y2="128.256" gradientUnits="userSpaceOnUse">
<stop stop-color="#77EBFF"/>
<stop offset="1" stop-color="#4D86DE"/>
</linearGradient>
<linearGradient id="paint35_linear_12_568" x1="40.9197" y1="87.5056" x2="38.1366" y2="126.115" gradientUnits="userSpaceOnUse">
<stop stop-color="#77EBFF"/>
<stop offset="1" stop-color="#4D86DE"/>
</linearGradient>
<linearGradient id="paint36_linear_12_568" x1="59.5" y1="122.345" x2="59.5" y2="132.794" gradientUnits="userSpaceOnUse">
<stop stop-color="#77EBFF"/>
<stop offset="1" stop-color="#4D86DE"/>
</linearGradient>
<linearGradient id="paint37_linear_12_568" x1="59.7" y1="119.435" x2="59.5332" y2="128.715" gradientUnits="userSpaceOnUse">
<stop stop-color="#77EBFF"/>
<stop offset="1" stop-color="#4D86DE"/>
</linearGradient>
<linearGradient id="paint38_linear_12_568" x1="66.7897" y1="126.869" x2="65.6761" y2="128.823" gradientUnits="userSpaceOnUse">
<stop stop-color="#77EBFF"/>
<stop offset="1" stop-color="#4D86DE"/>
</linearGradient>
<linearGradient id="paint39_linear_12_568" x1="60.59" y1="110.761" x2="59.7978" y2="124.018" gradientUnits="userSpaceOnUse">
<stop stop-color="#77EBFF"/>
<stop offset="1" stop-color="#4D86DE"/>
</linearGradient>
<linearGradient id="paint40_linear_12_568" x1="59.911" y1="78.3312" x2="56.4239" y2="122.36" gradientUnits="userSpaceOnUse">
<stop stop-color="#77EBFF"/>
<stop offset="1" stop-color="#4D86DE"/>
</linearGradient>
<linearGradient id="paint41_linear_12_568" x1="96.5" y1="113.928" x2="96.5" y2="131.478" gradientUnits="userSpaceOnUse">
<stop stop-color="#77EBFF"/>
<stop offset="1" stop-color="#4D86DE"/>
</linearGradient>
<linearGradient id="paint42_linear_12_568" x1="98.3879" y1="107.716" x2="97.3473" y2="124.921" gradientUnits="userSpaceOnUse">
<stop stop-color="#77EBFF"/>
<stop offset="1" stop-color="#4D86DE"/>
</linearGradient>
<linearGradient id="paint43_linear_12_568" x1="109.003" y1="121.463" x2="107.114" y2="124.983" gradientUnits="userSpaceOnUse">
<stop stop-color="#77EBFF"/>
<stop offset="1" stop-color="#4D86DE"/>
</linearGradient>
<linearGradient id="paint44_linear_12_568" x1="98.6865" y1="98.0761" x2="97.0902" y2="116.488" gradientUnits="userSpaceOnUse">
<stop stop-color="#77EBFF"/>
<stop offset="1" stop-color="#4D86DE"/>
</linearGradient>
<linearGradient id="paint45_linear_12_568" x1="96.4942" y1="61.9816" x2="93.8717" y2="113.941" gradientUnits="userSpaceOnUse">
<stop stop-color="#77EBFF"/>
<stop offset="1" stop-color="#4D86DE"/>
</linearGradient>
<linearGradient id="paint46_linear_12_568" x1="36.1066" y1="53.1364" x2="36.1066" y2="73.6777" gradientUnits="userSpaceOnUse">
<stop stop-color="#77EBFF"/>
<stop offset="1" stop-color="#4D86DE"/>
</linearGradient>
<linearGradient id="paint47_linear_12_568" x1="37.1268" y1="53.6994" x2="36.4662" y2="66.285" gradientUnits="userSpaceOnUse">
<stop stop-color="#77EBFF"/>
<stop offset="1" stop-color="#4D86DE"/>
</linearGradient>
<linearGradient id="paint48_linear_12_568" x1="48.6026" y1="62.8631" x2="46.7142" y2="66.383" gradientUnits="userSpaceOnUse">
<stop stop-color="#77EBFF"/>
<stop offset="1" stop-color="#4D86DE"/>
</linearGradient>
<linearGradient id="paint49_linear_12_568" x1="37.7762" y1="42.1631" x2="36.4021" y2="57.8646" gradientUnits="userSpaceOnUse">
<stop stop-color="#77EBFF"/>
<stop offset="1" stop-color="#4D86DE"/>
</linearGradient>
<linearGradient id="paint50_linear_12_568" x1="36.0942" y1="3.3815" x2="33.4717" y2="55.3413" gradientUnits="userSpaceOnUse">
<stop stop-color="#77EBFF"/>
<stop offset="1" stop-color="#4D86DE"/>
</linearGradient>
<linearGradient id="paint51_linear_12_568" x1="74" y1="79.3049" x2="75.4" y2="80.3998" gradientUnits="userSpaceOnUse">
<stop stop-color="#CBF1FF"/>
<stop offset="1" stop-color="#7BD2F4"/>
</linearGradient>
<linearGradient id="paint52_linear_12_568" x1="32" y1="27.3049" x2="33.4" y2="28.3998" gradientUnits="userSpaceOnUse">
<stop stop-color="#CBF1FF"/>
<stop offset="1" stop-color="#7BD2F4"/>
</linearGradient>
<linearGradient id="paint53_linear_12_568" x1="86" y1="57.3049" x2="87.4" y2="58.3998" gradientUnits="userSpaceOnUse">
<stop stop-color="#CBF1FF"/>
<stop offset="1" stop-color="#7BD2F4"/>
</linearGradient>
<linearGradient id="paint54_linear_12_568" x1="127" y1="71.905" x2="128.4" y2="72.9999" gradientUnits="userSpaceOnUse">
<stop stop-color="#CBF1FF"/>
<stop offset="1" stop-color="#7BD2F4"/>
</linearGradient>
<linearGradient id="paint55_linear_12_568" x1="72" y1="43.3049" x2="74.5081" y2="45.5272" gradientUnits="userSpaceOnUse">
<stop stop-color="#E4FFFC"/>
<stop offset="1" stop-color="#B8FBF3"/>
</linearGradient>
<linearGradient id="paint56_linear_12_568" x1="50.4" y1="51.905" x2="52.9081" y2="54.1273" gradientUnits="userSpaceOnUse">
<stop stop-color="#E4FFFC"/>
<stop offset="1" stop-color="#B8FBF3"/>
</linearGradient>
<linearGradient id="paint57_linear_12_568" x1="111.6" y1="91.0357" x2="113.6" y2="92.5999" gradientUnits="userSpaceOnUse">
<stop stop-color="#CBF1FF"/>
<stop offset="1" stop-color="#7BD2F4"/>
</linearGradient>
<linearGradient id="paint58_linear_12_568" x1="99.8" y1="118.818" x2="100.8" y2="119.6" gradientUnits="userSpaceOnUse">
<stop stop-color="#CBF1FF"/>
<stop offset="1" stop-color="#7BD2F4"/>
</linearGradient>
<linearGradient id="paint59_linear_12_568" x1="38.2" y1="107.018" x2="39.2" y2="107.8" gradientUnits="userSpaceOnUse">
<stop stop-color="#CBF1FF"/>
<stop offset="1" stop-color="#7BD2F4"/>
</linearGradient>
<linearGradient id="paint60_linear_12_568" x1="76" y1="109.236" x2="78" y2="110.8" gradientUnits="userSpaceOnUse">
<stop stop-color="#CBF1FF"/>
<stop offset="1" stop-color="#7BD2F4"/>
</linearGradient>
<linearGradient id="paint61_linear_12_568" x1="47.8" y1="91.0357" x2="49.8" y2="92.5999" gradientUnits="userSpaceOnUse">
<stop stop-color="#CBF1FF"/>
<stop offset="1" stop-color="#7BD2F4"/>
</linearGradient>
<linearGradient id="paint62_linear_12_568" x1="54.2" y1="115.661" x2="55.4" y2="116.6" gradientUnits="userSpaceOnUse">
<stop stop-color="#CBF1FF"/>
<stop offset="1" stop-color="#7BD2F4"/>
</linearGradient>
</defs>
</svg>
